<svg width="14" height="14" viewBox="0 0 14 14" fill="none" xmlns="http://www.w3.org/2000/svg">
<path d="M12.1371 5.38452L3.86832 0.2875C3.27009 -0.0807935 2.54682 -0.0961061 1.93353 0.246539C1.32024 0.58913 0.954102 1.21314 0.954102 1.91563V12.0632C0.954102 13.1254 1.80996 13.9942 2.86188 14C2.86475 14 2.86762 14 2.87044 14C3.19916 14 3.54173 13.897 3.86168 13.7017C4.11906 13.5447 4.20041 13.2087 4.04338 12.9514C3.88634 12.694 3.55034 12.6126 3.29304 12.7697C3.14338 12.8609 2.99723 12.9082 2.86776 12.9081C2.47086 12.906 2.04591 12.566 2.04591 12.0633V1.91566C2.04591 1.6143 2.20298 1.34669 2.46602 1.19972C2.7291 1.05274 3.03931 1.05931 3.29561 1.21711L11.5644 6.31413C11.8129 6.46715 11.9551 6.72229 11.9545 7.01416C11.9539 7.306 11.8107 7.56057 11.5608 7.71307L5.58242 11.3735C5.32528 11.531 5.24445 11.8671 5.4019 12.1242C5.55932 12.3813 5.8954 12.4621 6.15254 12.3047L12.1302 8.64467C12.7025 8.29552 13.045 7.68684 13.0464 7.01635C13.0478 6.34593 12.7077 5.73584 12.1371 5.38452Z" fill="#1F4B3F"/>
</svg>
