<svg width="106" height="19" viewBox="0 0 106 19" fill="none" xmlns="http://www.w3.org/2000/svg">
<path fill-rule="evenodd" clip-rule="evenodd" d="M14.0867 18.5576L9.23175 15.7922L4.37684 18.5576C3.8585 18.853 3.22806 18.4191 3.31775 17.8283L4.19878 12.0166L0.209078 8.00368C-0.201104 7.59091 0.025749 6.8867 0.598156 6.79307L6.03866 5.89368L8.58812 0.594955C8.84794 0.0555878 9.61555 0.0555878 9.87538 0.594955L12.4261 5.89368L17.8653 6.79307C18.4391 6.8867 18.6659 7.59091 18.2557 8.00368L14.2647 12.0166L15.1457 17.8283C15.2354 18.4191 14.605 18.853 14.0867 18.5576Z" fill="#95DF00"/>
<path fill-rule="evenodd" clip-rule="evenodd" d="M35.9705 18.5576L31.1156 15.7922L26.2607 18.5576C25.7423 18.853 25.1119 18.4191 25.2016 17.8283L26.0826 12.0166L22.0929 8.00368C21.6827 7.59091 21.9096 6.8867 22.482 6.79307L27.9225 5.89368L30.4719 0.594955C30.7318 0.0555878 31.4994 0.0555878 31.7592 0.594955L34.31 5.89368L39.7492 6.79307C40.3229 6.8867 40.5497 7.59091 40.1396 8.00368L36.1485 12.0166L37.0296 17.8283C37.1192 18.4191 36.4888 18.853 35.9705 18.5576Z" fill="#95DF00"/>
<path fill-rule="evenodd" clip-rule="evenodd" d="M57.8543 18.5576L52.9994 15.7922L48.1444 18.5576C47.6261 18.853 46.9957 18.4191 47.0854 17.8283L47.9664 12.0166L43.9767 8.00368C43.5665 7.59091 43.7934 6.8867 44.3658 6.79307L49.8063 5.89368L52.3557 0.594955C52.6156 0.0555878 53.3832 0.0555878 53.643 0.594955L56.1938 5.89368L61.6329 6.79307C62.2067 6.8867 62.4335 7.59091 62.0233 8.00368L58.0323 12.0166L58.9134 17.8283C59.003 18.4191 58.3726 18.853 57.8543 18.5576Z" fill="#95DF00"/>
<path fill-rule="evenodd" clip-rule="evenodd" d="M79.7381 18.5576L74.8832 15.7922L70.0283 18.5576C69.5099 18.853 68.8795 18.4191 68.9692 17.8283L69.8502 12.0166L65.8605 8.00368C65.4503 7.59091 65.6772 6.8867 66.2496 6.79307L71.6901 5.89368L74.2395 0.594955C74.4994 0.0555878 75.267 0.0555878 75.5268 0.594955L78.0776 5.89368L83.5168 6.79307C84.0905 6.8867 84.3173 7.59091 83.9072 8.00368L79.9161 12.0166L80.7972 17.8283C80.8869 18.4191 80.2564 18.853 79.7381 18.5576Z" fill="#95DF00"/>
<mask id="path-5-inside-1" fill="white">
<path fill-rule="evenodd" clip-rule="evenodd" d="M101.622 18.5576L96.767 15.7922L91.9121 18.5576C91.3938 18.853 90.7633 18.4191 90.853 17.8283L91.734 12.0166L87.7443 8.00368C87.3341 7.59091 87.561 6.8867 88.1334 6.79307L93.5739 5.89368L96.1234 0.594955C96.3832 0.0555878 97.1508 0.0555878 97.4106 0.594955L99.9614 5.89368L105.401 6.79307C105.974 6.8867 106.201 7.59091 105.791 8.00368L101.8 12.0166L102.681 17.8283C102.771 18.4191 102.14 18.853 101.622 18.5576Z"/>
</mask>
<path d="M96.767 15.7922L96.9954 15.3911L96.767 15.261L96.5385 15.3911L96.767 15.7922ZM91.9121 18.5576L91.6836 18.1565L91.6835 18.1566L91.9121 18.5576ZM90.853 17.8283L91.3093 17.8976L91.3094 17.8975L90.853 17.8283ZM91.734 12.0166L92.1904 12.0858L92.2252 11.856L92.0614 11.6912L91.734 12.0166ZM87.7443 8.00368L87.4169 8.32903L87.417 8.3291L87.7443 8.00368ZM88.1334 6.79307L88.2079 7.24858L88.2087 7.24845L88.1334 6.79307ZM93.5739 5.89368L93.6492 6.34907L93.8858 6.30995L93.9898 6.0938L93.5739 5.89368ZM96.1234 0.594955L95.7075 0.394638L95.7074 0.394833L96.1234 0.594955ZM97.4106 0.594955L97.8265 0.394749L97.8265 0.394638L97.4106 0.594955ZM99.9614 5.89368L99.5455 6.09389L99.6495 6.30995L99.8861 6.34907L99.9614 5.89368ZM105.401 6.79307L105.325 7.24845L105.326 7.24861L105.401 6.79307ZM105.791 8.00368L106.118 8.32916L106.118 8.32903L105.791 8.00368ZM101.8 12.0166L101.473 11.6911L101.309 11.856L101.344 12.0858L101.8 12.0166ZM102.681 17.8283L102.225 17.8975L102.225 17.8976L102.681 17.8283ZM101.85 18.1565L96.9954 15.3911L96.5385 16.1933L101.393 18.9587L101.85 18.1565ZM96.5385 15.3911L91.6836 18.1565L92.1405 18.9587L96.9954 16.1933L96.5385 15.3911ZM91.6835 18.1566C91.5018 18.2602 91.2773 18.1087 91.3093 17.8976L90.3967 17.7591C90.2493 18.7295 91.2857 19.4458 92.1406 18.9586L91.6835 18.1566ZM91.3094 17.8975L92.1904 12.0858L91.2777 11.9474L90.3966 17.7592L91.3094 17.8975ZM92.0614 11.6912L88.0717 7.67825L87.417 8.3291L91.4067 12.3421L92.0614 11.6912ZM88.0717 7.67832C87.9243 7.52994 88.0086 7.28118 88.2079 7.24858L88.0589 6.33755C87.1134 6.49221 86.744 7.65188 87.4169 8.32903L88.0717 7.67832ZM88.2087 7.24845L93.6492 6.34907L93.4986 5.43829L88.0581 6.33768L88.2087 7.24845ZM93.9898 6.0938L96.5393 0.795077L95.7074 0.394833L93.158 5.69356L93.9898 6.0938ZM96.5392 0.795272C96.6312 0.60424 96.9028 0.60424 96.9948 0.795272L97.8265 0.394638C97.3988 -0.493065 96.1352 -0.493065 95.7075 0.394638L96.5392 0.795272ZM96.9947 0.795161L99.5455 6.09389L100.377 5.69347L97.8265 0.394749L96.9947 0.795161ZM99.8861 6.34907L105.325 7.24845L105.476 6.33768L100.037 5.43829L99.8861 6.34907ZM105.326 7.24861C105.527 7.28143 105.611 7.53042 105.464 7.67832L106.118 8.32903C106.792 7.6514 106.421 6.49197 105.475 6.33752L105.326 7.24861ZM105.464 7.67819L101.473 11.6911L102.127 12.3421L106.118 8.32916L105.464 7.67819ZM101.344 12.0858L102.225 17.8975L103.137 17.7592L102.256 11.9474L101.344 12.0858ZM102.225 17.8976C102.257 18.1087 102.032 18.2602 101.85 18.1566L101.393 18.9586C102.248 19.4458 103.285 18.7295 103.137 17.7591L102.225 17.8976Z" fill="#95DF00" mask="url(#path-5-inside-1)"/>
<mask id="mask0" mask-type="alpha" maskUnits="userSpaceOnUse" x="87" y="0" width="16" height="19">
<rect x="87.5352" y="0.19043" width="14.7699" height="18.4624" fill="#C4C4C4"/>
</mask>
<g mask="url(#mask0)">
<path fill-rule="evenodd" clip-rule="evenodd" d="M101.622 18.5576L96.767 15.7922L91.9121 18.5576C91.3938 18.853 90.7633 18.4191 90.853 17.8283L91.734 12.0166L87.7443 8.00368C87.3341 7.59091 87.561 6.8867 88.1334 6.79307L93.5739 5.89368L96.1234 0.594955C96.3832 0.0555878 97.1508 0.0555878 97.4106 0.594955L99.9614 5.89368L105.401 6.79307C105.974 6.8867 106.201 7.59091 105.791 8.00368L101.8 12.0166L102.681 17.8283C102.771 18.4191 102.14 18.853 101.622 18.5576Z" fill="#95DF00"/>
</g>
</svg>
