<svg width="375" height="179" viewBox="0 0 375 179" fill="none" xmlns="http://www.w3.org/2000/svg">
<rect width="375" height="164" rx="10" fill="#E4EBE4"/>
<rect x="25.5" y="60.5" width="324" height="74" rx="7.5" fill="white" stroke="#BECCBE"/>
<rect x="38" y="105" width="120" height="13" rx="6.5" fill="#E4EBE4"/>
<path d="M39.312 90H42.224C42.432 90 42.544 89.872 42.544 89.744C42.544 89.248 41.728 89.376 41.728 88.624V84.304H43.616C44.032 84.304 44.32 84.448 44.528 84.816L45.152 85.792C45.376 86.192 45.728 86.096 45.728 85.632V82.128C45.728 81.696 45.36 81.6 45.152 81.968L44.528 82.96C44.32 83.312 44.032 83.488 43.616 83.488H41.728V79.84C41.728 79.536 41.888 79.376 42.192 79.376H44.736C45.328 79.376 45.712 79.552 46.032 80.064L47.008 81.584C47.2 81.904 47.6 81.824 47.6 81.424V79.328C47.6 78.784 47.344 78.56 46.784 78.56H39.312C39.12 78.56 38.992 78.688 38.992 78.816C38.992 79.36 39.824 79.232 39.824 79.936V88.624C39.824 89.328 38.992 89.2 38.992 89.744C38.992 89.872 39.12 90 39.312 90ZM50.7373 90.24C51.7133 90.24 52.6733 89.936 53.4893 89.296V89.888C53.4893 90.224 53.7293 90.336 54.0653 90.192L55.8733 89.392C56.0493 89.312 56.1293 89.184 56.1293 89.072C56.1293 88.608 55.2333 88.752 55.2333 88.144V81.936C55.2333 81.616 55.0253 81.488 54.6733 81.664L52.8653 82.592C52.6572 82.704 52.5933 82.8 52.5933 82.928C52.5933 83.424 53.4893 83.248 53.4893 83.888V88.544C52.8012 89.008 52.2092 89.12 51.6813 89.12C50.5933 89.12 50.2092 88.608 50.2092 87.392V81.952C50.2092 81.632 49.9532 81.504 49.6332 81.68L47.8092 82.64C47.6492 82.72 47.5532 82.848 47.5532 82.976C47.5532 83.44 48.4653 83.264 48.4653 83.904V87.792C48.4653 89.488 49.3612 90.24 50.7373 90.24ZM57.4636 90H60.0236C60.2316 90 60.3436 89.872 60.3436 89.728C60.3436 89.296 59.6236 89.328 59.6236 88.896V78.672C59.6236 78.32 59.3196 78.24 59.0156 78.4L57.2556 79.296C57.0796 79.376 56.9996 79.488 56.9996 79.616C56.9996 80.064 57.8796 79.952 57.8796 80.56V88.896C57.8796 89.344 57.1436 89.312 57.1436 89.728C57.1436 89.872 57.2556 90 57.4636 90ZM61.8006 90H64.3606C64.5686 90 64.6806 89.872 64.6806 89.728C64.6806 89.296 63.9606 89.328 63.9606 88.896V78.672C63.9606 78.32 63.6566 78.24 63.3526 78.4L61.5926 79.296C61.4166 79.376 61.3366 79.488 61.3366 79.616C61.3366 80.064 62.2166 79.952 62.2166 80.56V88.896C62.2166 89.344 61.4806 89.312 61.4806 89.728C61.4806 89.872 61.5926 90 61.8006 90ZM66.3296 85.776H69.8976C70.0896 85.776 70.1856 85.68 70.1856 85.504V85.152C70.1856 84.96 70.0896 84.864 69.8976 84.864H66.3296C66.1536 84.864 66.0576 84.96 66.0576 85.152V85.504C66.0576 85.68 66.1536 85.776 66.3296 85.776ZM74.5693 90.24C76.2173 90.24 77.3853 89.392 77.3853 87.776C77.3853 86.816 76.9533 85.808 74.9053 85.008C73.4493 84.432 73.1133 83.968 73.1133 83.392C73.1133 82.768 73.5293 82.352 74.2493 82.352C75.5933 82.352 75.5773 83.984 76.5533 83.984C76.9693 83.984 77.2253 83.696 77.2253 83.248C77.2253 82.192 75.8333 81.6 74.4733 81.6C72.8893 81.6 71.7533 82.4 71.7533 83.904C71.7533 85.008 72.2973 85.856 74.0413 86.544C75.5613 87.152 75.9773 87.696 75.9773 88.352C75.9773 89.056 75.4973 89.488 74.7293 89.488C73.0973 89.488 73.4813 87.648 72.3933 87.648C71.9293 87.648 71.6253 87.984 71.6253 88.464C71.6253 89.568 73.0973 90.24 74.5693 90.24ZM81.4654 90.24C82.6334 90.24 83.7694 89.68 83.7694 89.216C83.7694 89.104 83.7054 89.024 83.5454 89.024C83.3374 89.024 82.9854 89.2 82.3134 89.2C81.5774 89.2 81.2734 88.928 81.2734 88.208V82.608H83.7214C83.9134 82.608 84.0094 82.512 84.0094 82.336V82.096C84.0094 81.92 83.9134 81.824 83.7214 81.824H81.2734V80.144C81.2734 79.776 81.0014 79.664 80.7134 79.904L78.2974 81.872C77.9614 82.144 78.0894 82.512 78.5214 82.512H79.0654C79.3694 82.512 79.5294 82.672 79.5294 82.96V88.224C79.5294 89.648 80.2494 90.24 81.4654 90.24ZM86.7546 90.24C87.7146 90.24 88.6426 89.824 89.2346 89.04C89.2986 89.488 89.5066 90.24 90.4666 90.24C91.2026 90.24 91.7466 89.824 91.7466 89.424C91.7466 89.264 91.6826 89.2 91.5706 89.2C91.4586 89.2 91.3146 89.248 91.2026 89.248C91.0426 89.248 90.9306 89.136 90.9306 88.864V83.808C90.9306 82.352 90.1146 81.6 88.2266 81.6C85.9386 81.6 84.6746 82.592 84.6746 83.552C84.6746 84.064 85.0266 84.368 85.5066 84.368C86.7386 84.368 86.6106 82.304 88.1946 82.304C88.8986 82.304 89.1866 82.72 89.1866 83.568V85.2C86.0026 85.488 84.6266 86.56 84.6266 88.176C84.6266 89.392 85.3786 90.24 86.7546 90.24ZM86.4506 87.776C86.4506 86.96 87.0746 86.16 89.1866 85.888V88.336C88.6586 88.8 88.2266 88.992 87.7146 88.992C86.8186 88.992 86.4506 88.4 86.4506 87.776ZM96.5677 90.24C98.4237 90.24 99.6557 89.024 99.6557 88.224C99.6557 88.016 99.5597 87.936 99.4477 87.936C99.0957 87.936 98.7437 88.736 97.2877 88.736C95.4157 88.736 94.3277 87.392 94.3277 85.28C94.3277 83.264 95.3037 82.352 96.6637 82.352C97.3677 82.352 97.6717 82.592 97.6717 83.088C97.6717 83.264 97.6237 83.536 97.6237 83.776C97.6237 84.464 98.0397 84.928 98.6797 84.928C99.3837 84.928 99.7357 84.384 99.7357 83.744C99.7357 82.48 98.3437 81.6 96.7117 81.6C94.4077 81.6 92.7597 83.328 92.7597 85.984C92.7597 88.608 94.4237 90.24 96.5677 90.24ZM101.12 90H103.68C103.888 90 104 89.872 104 89.728C104 89.312 103.296 89.328 103.296 88.896V85.68L105.664 88.768C105.744 88.88 105.808 88.976 105.808 89.072C105.808 89.328 105.472 89.408 105.472 89.696C105.472 89.856 105.6 90 105.824 90H108.48C108.688 90 108.816 89.888 108.816 89.712C108.816 89.328 108.128 89.232 107.616 88.56L104.816 84.96L106.592 83.456L108.192 82.464C108.384 82.352 108.448 82.224 108.448 82.096C108.448 81.936 108.336 81.824 108.128 81.824H105.84C105.648 81.824 105.568 81.92 105.584 82.144L105.664 82.976C105.696 83.232 105.584 83.344 105.392 83.504L103.296 85.232V78.672C103.296 78.32 103.008 78.256 102.72 78.4L100.912 79.296C100.752 79.376 100.656 79.504 100.656 79.616C100.656 80.064 101.536 79.952 101.536 80.512V88.896C101.536 89.328 100.8 89.312 100.8 89.728C100.8 89.872 100.912 90 101.12 90ZM116.222 90.24C117.086 90.24 117.966 89.936 118.51 89.232V89.872C118.51 90.208 118.734 90.32 119.086 90.176L120.894 89.424C121.07 89.344 121.15 89.232 121.15 89.088C121.15 88.592 120.27 88.768 120.27 88.16V78.64C120.27 78.32 120.03 78.224 119.678 78.4L117.886 79.28C117.678 79.376 117.614 79.488 117.614 79.632C117.614 80.144 118.51 79.968 118.51 80.592V82.096C118.014 81.856 117.502 81.76 116.958 81.76C114.51 81.76 113.006 83.728 113.006 86.256C113.006 88.768 114.382 90.24 116.222 90.24ZM114.83 85.584C114.83 83.536 115.646 82.512 117.006 82.512C117.886 82.512 118.51 82.928 118.51 84.08V88.544C117.966 88.896 117.566 89.024 117.086 89.024C115.822 89.024 114.83 87.984 114.83 85.584ZM126.059 90.24C127.627 90.24 128.795 89.44 129.195 88.4C129.259 88.24 129.275 88.112 129.275 88.016C129.275 87.84 129.211 87.76 129.099 87.76C128.683 87.76 128.187 88.8 126.603 88.8C124.923 88.8 123.819 87.552 123.771 85.328H128.427C128.923 85.328 129.195 85.104 129.195 84.416C129.195 82.992 127.979 81.6 125.947 81.6C123.707 81.6 122.139 83.296 122.139 85.872C122.139 88.592 123.835 90.24 126.059 90.24ZM123.787 84.56C123.883 83.12 124.699 82.352 125.819 82.352C127.003 82.352 127.451 83.216 127.451 84.128C127.451 84.416 127.291 84.56 126.971 84.56H123.787ZM133.823 90.24C134.111 90.24 134.367 90.096 134.511 89.744L137.007 83.344C137.311 82.56 137.935 82.336 137.935 82.016C137.935 81.904 137.855 81.824 137.711 81.824H135.695C135.535 81.824 135.455 81.888 135.455 82C135.455 82.288 136.079 82.528 136.079 83.056C136.079 83.2 136.047 83.328 135.983 83.504L134.239 88.192L132.575 83.488C132.511 83.328 132.479 83.2 132.479 83.072C132.479 82.512 133.183 82.336 133.183 82.016C133.183 81.904 133.103 81.824 132.943 81.824H129.983C129.807 81.824 129.711 81.904 129.711 82.032C129.711 82.336 130.335 82.56 130.655 83.36L133.151 89.744C133.295 90.096 133.535 90.24 133.823 90.24ZM142.233 90.24C143.801 90.24 144.969 89.44 145.369 88.4C145.433 88.24 145.449 88.112 145.449 88.016C145.449 87.84 145.385 87.76 145.273 87.76C144.857 87.76 144.361 88.8 142.777 88.8C141.097 88.8 139.993 87.552 139.945 85.328H144.601C145.097 85.328 145.369 85.104 145.369 84.416C145.369 82.992 144.153 81.6 142.121 81.6C139.881 81.6 138.313 83.296 138.313 85.872C138.313 88.592 140.009 90.24 142.233 90.24ZM139.961 84.56C140.057 83.12 140.873 82.352 141.993 82.352C143.177 82.352 143.625 83.216 143.625 84.128C143.625 84.416 143.465 84.56 143.145 84.56H139.961ZM146.907 90H149.467C149.675 90 149.787 89.872 149.787 89.728C149.787 89.296 149.067 89.328 149.067 88.896V78.672C149.067 78.32 148.763 78.24 148.459 78.4L146.699 79.296C146.523 79.376 146.443 79.488 146.443 79.616C146.443 80.064 147.323 79.952 147.323 80.56V88.896C147.323 89.344 146.587 89.312 146.587 89.728C146.587 89.872 146.699 90 146.907 90ZM154.988 90.24C157.308 90.24 159.052 88.512 159.052 85.92C159.052 83.296 157.308 81.6 154.988 81.6C152.668 81.6 150.924 83.296 150.924 85.92C150.924 88.512 152.668 90.24 154.988 90.24ZM152.94 86.416V85.424C152.94 83.328 153.708 82.368 154.988 82.368C156.284 82.368 157.036 83.328 157.036 85.424V86.4C157.036 88.384 156.284 89.456 154.988 89.456C153.708 89.456 152.94 88.384 152.94 86.416ZM160.535 92.784H163.095C163.287 92.784 163.415 92.672 163.415 92.496C163.415 92.08 162.695 92.096 162.695 91.664V89.632C163.223 89.92 163.719 90.048 164.311 90.048C166.535 90.048 168.055 88.24 168.055 85.392C168.055 82.976 166.951 81.6 165.143 81.6C164.327 81.6 163.495 81.888 162.695 82.464V81.968C162.695 81.648 162.455 81.504 162.119 81.68L160.327 82.592C160.151 82.688 160.071 82.784 160.071 82.912C160.071 83.344 160.951 83.184 160.951 83.824V91.664C160.951 92.112 160.199 92.112 160.199 92.496C160.199 92.672 160.327 92.784 160.535 92.784ZM162.695 87.472V83.184C163.223 82.88 163.639 82.784 164.087 82.784C165.511 82.784 166.231 83.824 166.231 85.968C166.231 88.128 165.415 89.28 164.167 89.28C163.239 89.28 162.695 88.624 162.695 87.472ZM173.143 90.24C174.711 90.24 175.879 89.44 176.279 88.4C176.343 88.24 176.359 88.112 176.359 88.016C176.359 87.84 176.295 87.76 176.183 87.76C175.767 87.76 175.271 88.8 173.687 88.8C172.007 88.8 170.903 87.552 170.855 85.328H175.511C176.007 85.328 176.279 85.104 176.279 84.416C176.279 82.992 175.063 81.6 173.031 81.6C170.791 81.6 169.223 83.296 169.223 85.872C169.223 88.592 170.919 90.24 173.143 90.24ZM170.871 84.56C170.967 83.12 171.783 82.352 172.903 82.352C174.087 82.352 174.535 83.216 174.535 84.128C174.535 84.416 174.375 84.56 174.055 84.56H170.871ZM177.93 90H180.49C180.698 90 180.826 89.872 180.826 89.728C180.826 89.312 180.106 89.296 180.106 88.944V84.256C180.106 83.488 180.49 83.072 181.066 83.072C181.706 83.072 181.914 83.6 182.602 83.6C183.146 83.6 183.562 83.264 183.562 82.672C183.562 82.032 183.066 81.6 182.282 81.6C181.418 81.6 180.586 82.128 180.106 82.976V81.952C180.106 81.584 179.786 81.52 179.482 81.68L177.722 82.56C177.562 82.64 177.482 82.768 177.482 82.896C177.482 83.328 178.346 83.168 178.346 83.808V88.944C178.346 89.312 177.61 89.328 177.61 89.728C177.61 89.872 177.722 90 177.93 90ZM187.14 90.24C188.788 90.24 189.956 89.392 189.956 87.776C189.956 86.816 189.524 85.808 187.476 85.008C186.02 84.432 185.684 83.968 185.684 83.392C185.684 82.768 186.1 82.352 186.82 82.352C188.164 82.352 188.148 83.984 189.124 83.984C189.54 83.984 189.796 83.696 189.796 83.248C189.796 82.192 188.404 81.6 187.044 81.6C185.46 81.6 184.324 82.4 184.324 83.904C184.324 85.008 184.868 85.856 186.612 86.544C188.132 87.152 188.548 87.696 188.548 88.352C188.548 89.056 188.068 89.488 187.3 89.488C185.668 89.488 186.052 87.648 184.964 87.648C184.5 87.648 184.196 87.984 184.196 88.464C184.196 89.568 185.668 90.24 187.14 90.24ZM200.641 90H203.201C203.409 90 203.521 89.872 203.521 89.728C203.521 89.328 202.801 89.296 202.801 88.944V83.696C202.801 82.352 202.177 81.6 200.865 81.6C199.889 81.6 198.657 82.016 197.617 82.672V81.968C197.617 81.6 197.313 81.536 197.025 81.68L195.233 82.592C195.073 82.672 194.977 82.8 194.977 82.912C194.977 83.344 195.857 83.216 195.857 83.808V88.944C195.857 89.312 195.121 89.328 195.121 89.728C195.121 89.872 195.233 90 195.441 90H198.017C198.225 90 198.353 89.872 198.353 89.728C198.353 89.312 197.617 89.296 197.617 88.944V83.344C198.385 82.992 199.057 82.848 199.649 82.848C200.657 82.848 201.057 83.296 201.057 84.544V88.944C201.057 89.328 200.321 89.312 200.321 89.728C200.321 89.872 200.433 90 200.641 90ZM208.532 90.24C210.1 90.24 211.268 89.44 211.668 88.4C211.732 88.24 211.748 88.112 211.748 88.016C211.748 87.84 211.684 87.76 211.572 87.76C211.156 87.76 210.66 88.8 209.076 88.8C207.396 88.8 206.292 87.552 206.244 85.328H210.9C211.396 85.328 211.668 85.104 211.668 84.416C211.668 82.992 210.452 81.6 208.42 81.6C206.18 81.6 204.612 83.296 204.612 85.872C204.612 88.592 206.308 90.24 208.532 90.24ZM206.26 84.56C206.356 83.12 207.172 82.352 208.292 82.352C209.476 82.352 209.924 83.216 209.924 84.128C209.924 84.416 209.764 84.56 209.444 84.56H206.26ZM216.822 90.24C218.39 90.24 219.558 89.44 219.958 88.4C220.022 88.24 220.038 88.112 220.038 88.016C220.038 87.84 219.974 87.76 219.862 87.76C219.446 87.76 218.95 88.8 217.366 88.8C215.686 88.8 214.582 87.552 214.534 85.328H219.19C219.686 85.328 219.958 85.104 219.958 84.416C219.958 82.992 218.742 81.6 216.71 81.6C214.47 81.6 212.902 83.296 212.902 85.872C212.902 88.592 214.598 90.24 216.822 90.24ZM214.55 84.56C214.646 83.12 215.462 82.352 216.582 82.352C217.766 82.352 218.214 83.216 218.214 84.128C218.214 84.416 218.054 84.56 217.734 84.56H214.55ZM224.424 90.24C225.288 90.24 226.168 89.936 226.712 89.232V89.872C226.712 90.208 226.936 90.32 227.288 90.176L229.096 89.424C229.272 89.344 229.352 89.232 229.352 89.088C229.352 88.592 228.472 88.768 228.472 88.16V78.64C228.472 78.32 228.232 78.224 227.88 78.4L226.088 79.28C225.88 79.376 225.816 79.488 225.816 79.632C225.816 80.144 226.712 79.968 226.712 80.592V82.096C226.216 81.856 225.704 81.76 225.16 81.76C222.712 81.76 221.208 83.728 221.208 86.256C221.208 88.768 222.584 90.24 224.424 90.24ZM223.032 85.584C223.032 83.536 223.848 82.512 225.208 82.512C226.088 82.512 226.712 82.928 226.712 84.08V88.544C226.168 88.896 225.768 89.024 225.288 89.024C224.024 89.024 223.032 87.984 223.032 85.584ZM234.261 90.24C235.829 90.24 236.997 89.44 237.397 88.4C237.461 88.24 237.477 88.112 237.477 88.016C237.477 87.84 237.413 87.76 237.301 87.76C236.885 87.76 236.389 88.8 234.805 88.8C233.125 88.8 232.021 87.552 231.973 85.328H236.629C237.125 85.328 237.397 85.104 237.397 84.416C237.397 82.992 236.181 81.6 234.149 81.6C231.909 81.6 230.341 83.296 230.341 85.872C230.341 88.592 232.037 90.24 234.261 90.24ZM231.989 84.56C232.085 83.12 232.901 82.352 234.021 82.352C235.205 82.352 235.653 83.216 235.653 84.128C235.653 84.416 235.493 84.56 235.173 84.56H231.989ZM241.863 90.24C242.727 90.24 243.607 89.936 244.151 89.232V89.872C244.151 90.208 244.375 90.32 244.727 90.176L246.535 89.424C246.711 89.344 246.791 89.232 246.791 89.088C246.791 88.592 245.911 88.768 245.911 88.16V78.64C245.911 78.32 245.671 78.224 245.319 78.4L243.527 79.28C243.319 79.376 243.255 79.488 243.255 79.632C243.255 80.144 244.151 79.968 244.151 80.592V82.096C243.655 81.856 243.143 81.76 242.599 81.76C240.151 81.76 238.647 83.728 238.647 86.256C238.647 88.768 240.023 90.24 241.863 90.24ZM240.471 85.584C240.471 83.536 241.287 82.512 242.647 82.512C243.527 82.512 244.151 82.928 244.151 84.08V88.544C243.607 88.896 243.207 89.024 242.727 89.024C241.463 89.024 240.471 87.984 240.471 85.584Z" fill="#65735B"/>
<path d="M25 153C25 148.582 28.5817 145 33 145H342C346.418 145 350 148.582 350 153V164H187.5H25V153Z" fill="white"/>
<path d="M350 164V153C350 148.582 346.418 145 342 145H33C28.5817 145 25 148.582 25 153V164" stroke="#BECCBE"/>
<rect x="25" y="20" width="134" height="25" rx="12.5" fill="#F7FAF7"/>
<path d="M35.804 37H38.912C41.276 37 42.728 35.476 42.728 32.716C42.728 29.956 41.276 28.42 38.912 28.42H35.804V37ZM36.884 29.38H38.912C41.096 29.38 41.648 31.036 41.648 32.716C41.648 34.396 41.096 36.04 38.912 36.04H36.884V29.38ZM47.0671 36.328C45.7351 36.328 45.0751 35.296 45.0751 34.192H49.9111C49.9111 32.02 48.9751 30.712 47.0551 30.712C45.2671 30.712 44.1151 31.9 44.1151 33.94C44.1151 35.86 45.2431 37.168 47.1031 37.168C48.6271 37.168 49.5031 36.256 49.8151 35.116H48.8551C48.7471 35.536 48.2911 36.328 47.0671 36.328ZM47.0551 31.552C48.2071 31.552 48.9511 32.368 48.9511 33.352H45.0751C45.0751 32.368 45.9031 31.552 47.0551 31.552ZM50.7084 30.88L52.9044 37H53.9964L56.1924 30.88H55.1484L53.4564 36.04H53.4444L51.7524 30.88H50.7084ZM59.9624 36.328C58.6304 36.328 57.9704 35.296 57.9704 34.192H62.8064C62.8064 32.02 61.8704 30.712 59.9504 30.712C58.1624 30.712 57.0104 31.9 57.0104 33.94C57.0104 35.86 58.1384 37.168 59.9984 37.168C61.5224 37.168 62.3984 36.256 62.7104 35.116H61.7504C61.6424 35.536 61.1864 36.328 59.9624 36.328ZM59.9504 31.552C61.1024 31.552 61.8464 32.368 61.8464 33.352H57.9704C57.9704 32.368 58.7984 31.552 59.9504 31.552ZM64.3929 28.42V37H65.3529V28.42H64.3929ZM69.9643 37.168C68.0923 37.168 66.9643 35.848 66.9643 33.94C66.9643 32.032 68.0923 30.712 69.9643 30.712C71.8243 30.712 72.9523 32.032 72.9523 33.94C72.9523 35.848 71.8243 37.168 69.9643 37.168ZM69.9643 36.328C71.3323 36.328 71.9923 35.248 71.9923 33.94C71.9923 32.632 71.3323 31.552 69.9643 31.552C68.5843 31.552 67.9243 32.632 67.9243 33.94C67.9243 35.248 68.5843 36.328 69.9643 36.328ZM77.4497 30.712C76.4417 30.712 75.8657 31.168 75.5057 31.636H75.4817V30.88H74.5217V39.064H75.4817V36.208H75.5057C75.8657 36.736 76.4417 37.168 77.4497 37.168C78.9617 37.168 80.1857 35.956 80.1857 33.94C80.1857 31.924 78.9617 30.712 77.4497 30.712ZM77.3297 36.328C76.1897 36.328 75.4817 35.38 75.4817 33.94C75.4817 32.5 76.1897 31.552 77.3297 31.552C78.5897 31.552 79.2257 32.74 79.2257 33.94C79.2257 35.14 78.5897 36.328 77.3297 36.328ZM88.1857 30.712C87.2617 30.712 86.6257 31.192 86.2057 31.768H86.1817C85.9297 31.084 85.4257 30.712 84.5497 30.712C83.6257 30.712 83.0977 31.18 82.7737 31.612H82.7497V30.88H81.7897V37H82.7497V33.184C82.7497 32.236 83.3497 31.552 84.3097 31.552C85.2697 31.552 85.4257 32.176 85.4257 32.968V37H86.3857V33.184C86.3857 32.236 86.9857 31.552 87.9457 31.552C88.9057 31.552 89.0617 32.176 89.0617 32.968V37H90.0217V32.728C90.0217 31.444 89.4217 30.712 88.1857 30.712ZM94.5093 36.328C93.1773 36.328 92.5173 35.296 92.5173 34.192H97.3533C97.3533 32.02 96.4173 30.712 94.4973 30.712C92.7093 30.712 91.5573 31.9 91.5573 33.94C91.5573 35.86 92.6853 37.168 94.5453 37.168C96.0693 37.168 96.9453 36.256 97.2573 35.116H96.2973C96.1893 35.536 95.7333 36.328 94.5093 36.328ZM94.4973 31.552C95.6493 31.552 96.3933 32.368 96.3933 33.352H92.5173C92.5173 32.368 93.3453 31.552 94.4973 31.552ZM101.904 30.712C100.86 30.712 100.212 31.18 99.8878 31.612H99.8638V30.88H98.9038V37H99.8638V33.184C99.8638 32.236 100.584 31.552 101.664 31.552C102.624 31.552 102.996 32.176 102.996 32.968V37H103.956V32.728C103.956 31.324 103.02 30.712 101.904 30.712ZM108.39 31.72V30.88H107.19V28.84H106.23V30.88H105.33V31.72H106.23V35.5C106.23 36.748 106.854 37.072 107.67 37.072C107.922 37.072 108.174 37.048 108.39 37V36.16C107.574 36.22 107.19 36.1 107.19 35.404V31.72H108.39ZM119.477 37L118.205 35.428C118.661 34.66 118.913 33.76 119.021 32.944H118.061C117.977 33.544 117.809 34.132 117.569 34.648L115.817 32.488C116.933 31.816 117.581 31.204 117.581 30.232C117.581 29.26 116.861 28.24 115.565 28.252C114.185 28.264 113.549 29.26 113.549 30.232C113.549 31.012 113.957 31.624 114.545 32.356C113.669 32.908 112.805 33.64 112.805 34.888C112.805 36.196 113.729 37.168 115.373 37.168C116.345 37.168 117.089 36.772 117.653 36.16L118.337 37H119.477ZM115.565 29.212C116.237 29.212 116.621 29.716 116.621 30.304C116.621 31.036 116.117 31.42 115.325 31.888C114.869 31.324 114.509 30.82 114.509 30.304C114.509 29.716 114.893 29.212 115.565 29.212ZM115.373 36.208C114.317 36.208 113.765 35.572 113.765 34.888C113.765 34.072 114.257 33.472 115.025 32.956L117.053 35.428C116.633 35.908 116.081 36.208 115.373 36.208ZM123.81 28.42V37H124.89V28.42H123.81ZM129.128 37H130.208V29.38H133.064V28.42H126.272V29.38H129.128V37Z" fill="#001E00"/>
<path fill-rule="evenodd" clip-rule="evenodd" d="M147.946 27.5L144 31.4457L140.054 27.5L139 28.5543L142.946 32.5L139 36.4457L140.054 37.5L144 33.5543L147.946 37.5L149 36.4457L145.054 32.5L149 28.5543L147.946 27.5Z" fill="#65735B"/>
<rect x="164" y="20" width="72" height="25" rx="12.5" fill="#F7FAF7"/>
<path d="M174.804 28.42V37H175.884V33.028H180.468V37H181.548V28.42H180.468V32.068H175.884V28.42H174.804ZM186.385 37.168C184.513 37.168 183.385 35.848 183.385 33.94C183.385 32.032 184.513 30.712 186.385 30.712C188.245 30.712 189.373 32.032 189.373 33.94C189.373 35.848 188.245 37.168 186.385 37.168ZM186.385 36.328C187.753 36.328 188.413 35.248 188.413 33.94C188.413 32.632 187.753 31.552 186.385 31.552C185.005 31.552 184.345 32.632 184.345 33.94C184.345 35.248 185.005 36.328 186.385 36.328ZM194.998 30.88V34.696C194.998 35.644 194.278 36.328 193.198 36.328C192.238 36.328 191.866 35.704 191.866 34.912V30.88H190.906V35.152C190.906 36.556 191.842 37.168 192.958 37.168C194.002 37.168 194.65 36.7 194.974 36.268H194.998V37H195.958V30.88H194.998ZM200.558 30.712C199.682 30.712 199.19 31.288 198.866 32.092H198.842V30.88H197.882V37H198.842V33.736C198.842 32.428 199.766 31.492 201.098 31.708H201.122V30.748C200.954 30.724 200.786 30.712 200.558 30.712ZM202.631 28.42V37H203.591V28.42H202.631ZM210.735 30.88H209.655L207.891 35.872H207.867L205.995 30.88H204.915L207.231 36.496C207.471 37.096 207.219 37.612 206.967 37.888C206.643 38.236 206.271 38.272 205.743 38.224H205.599V38.944C205.755 38.992 206.031 39.064 206.415 39.064C207.543 39.064 207.855 38.164 208.119 37.504L210.735 30.88Z" fill="#001E00"/>
<path fill-rule="evenodd" clip-rule="evenodd" d="M224.946 27.5L221 31.4457L217.054 27.5L216 28.5543L219.946 32.5L216 36.4457L217.054 37.5L221 33.5543L224.946 37.5L226 36.4457L222.054 32.5L226 28.5543L224.946 27.5Z" fill="#65735B"/>
<rect x="241" y="20" width="100" height="25" rx="12.5" fill="#F7FAF7"/>
<path d="M252.884 32.164V29.38H257.624V28.42H251.804V37H252.884V33.124H256.712V32.164H252.884ZM259.797 29.692C260.073 29.692 260.397 29.488 260.397 29.116C260.397 28.744 260.073 28.54 259.797 28.54C259.533 28.54 259.197 28.744 259.197 29.116C259.197 29.488 259.533 29.692 259.797 29.692ZM259.317 30.88V37H260.278V30.88H259.317ZM261.933 30.88L264.093 33.868L261.729 37H262.869L264.657 34.504H264.681L266.481 37H267.621L265.245 33.868L267.405 30.88H266.265L264.681 33.22H264.657L263.073 30.88H261.933ZM271.134 36.328C269.802 36.328 269.142 35.296 269.142 34.192H273.978C273.978 32.02 273.042 30.712 271.122 30.712C269.334 30.712 268.182 31.9 268.182 33.94C268.182 35.86 269.31 37.168 271.17 37.168C272.694 37.168 273.57 36.256 273.882 35.116H272.922C272.814 35.536 272.358 36.328 271.134 36.328ZM271.122 31.552C272.274 31.552 273.018 32.368 273.018 33.352H269.142C269.142 32.368 269.97 31.552 271.122 31.552ZM279.885 28.42V31.672H279.861C279.501 31.144 278.925 30.712 277.941 30.712C276.405 30.712 275.181 31.924 275.181 33.94C275.181 35.956 276.405 37.168 277.941 37.168C278.925 37.168 279.501 36.712 279.861 36.244H279.885V37H280.845V28.42H279.885ZM278.037 36.328C276.777 36.328 276.141 35.14 276.141 33.94C276.141 32.74 276.777 31.552 278.037 31.552C279.177 31.552 279.885 32.5 279.885 33.94C279.885 35.38 279.177 36.328 278.037 36.328ZM282.558 33.46V34.42H285.774V33.46H282.558ZM287.631 37H288.711V33.412H291.039C292.611 33.412 293.823 32.716 293.823 30.916C293.823 29.116 292.611 28.42 291.039 28.42H287.631V37ZM288.711 29.38H291.159C292.227 29.38 292.743 29.872 292.743 30.916C292.743 31.96 292.227 32.452 291.159 32.452H288.711V29.38ZM297.993 30.712C297.117 30.712 296.625 31.288 296.301 32.092H296.277V30.88H295.317V37H296.277V33.736C296.277 32.428 297.201 31.492 298.533 31.708H298.557V30.748C298.389 30.724 298.221 30.712 297.993 30.712ZM300.63 29.692C300.906 29.692 301.23 29.488 301.23 29.116C301.23 28.744 300.906 28.54 300.63 28.54C300.366 28.54 300.03 28.744 300.03 29.116C300.03 29.488 300.366 29.692 300.63 29.692ZM300.15 30.88V37H301.11V30.88H300.15ZM307.494 33.088H308.454C308.31 31.72 307.278 30.712 305.766 30.712C303.978 30.712 302.802 32.02 302.802 33.94C302.802 35.86 303.978 37.168 305.766 37.168C307.278 37.168 308.37 36.136 308.454 34.744H307.494C307.446 35.476 307.002 36.328 305.766 36.328C304.314 36.328 303.762 35.092 303.762 33.94C303.762 32.788 304.314 31.552 305.766 31.552C306.99 31.552 307.446 32.416 307.494 33.088ZM312.577 36.328C311.245 36.328 310.585 35.296 310.585 34.192H315.421C315.421 32.02 314.485 30.712 312.565 30.712C310.777 30.712 309.625 31.9 309.625 33.94C309.625 35.86 310.753 37.168 312.613 37.168C314.137 37.168 315.013 36.256 315.325 35.116H314.365C314.257 35.536 313.801 36.328 312.577 36.328ZM312.565 31.552C313.717 31.552 314.461 32.368 314.461 33.352H310.585C310.585 32.368 311.413 31.552 312.565 31.552Z" fill="#001E00"/>
<path fill-rule="evenodd" clip-rule="evenodd" d="M329.946 27.5L326 31.4457L322.054 27.5L321 28.5543L324.946 32.5L321 36.4457L322.054 37.5L326 33.5543L329.946 37.5L331 36.4457L327.054 32.5L331 28.5543L329.946 27.5Z" fill="#65735B"/>
<circle cx="329.5" cy="142.5" r="21.5" fill="#E4EBE4"/>
<path fill-rule="evenodd" clip-rule="evenodd" d="M349.811 156.371L364.664 171.237C366.445 173.015 366.445 175.89 364.664 177.659C363.779 178.552 362.62 178.997 361.457 178.997C360.285 178.997 359.126 178.552 358.241 177.659L343.384 162.802C339.437 165.499 334.684 167.081 329.542 167.081C316.01 167.081 305 156.071 305 142.538C305 129.01 316.01 118 329.542 118C343.084 118 354.098 129.01 354.094 142.542C354.094 147.675 352.495 152.437 349.811 156.371ZM311.594 142.538C311.594 152.45 319.646 160.497 329.54 160.497C339.474 160.497 347.499 152.45 347.499 142.538C347.499 132.626 339.474 124.583 329.54 124.583C319.646 124.583 311.594 132.626 311.594 142.538Z" fill="#13544E"/>
</svg>
