<svg width="121" height="20" viewBox="0 0 121 20" fill="none" xmlns="http://www.w3.org/2000/svg">
<path fill-rule="evenodd" clip-rule="evenodd" d="M15.2599 19.8969L10.0006 16.9012L4.74136 19.8969C4.17986 20.2169 3.49692 19.7469 3.59407 19.1069L4.54848 12.8111L0.226491 8.46398C-0.217853 8.01683 0.0278935 7.25397 0.647974 7.15254L6.5416 6.17825L9.30339 0.438217C9.58485 -0.146072 10.4164 -0.146072 10.6979 0.438217L13.4611 6.17825L19.3533 7.15254C19.9748 7.25397 20.2205 8.01683 19.7762 8.46398L15.4528 12.8111L16.4072 19.1069C16.5043 19.7469 15.8214 20.2169 15.2599 19.8969Z" fill="#65735B"/>
<path fill-rule="evenodd" clip-rule="evenodd" d="M40.2599 19.8969L35.0006 16.9012L29.7414 19.8969C29.1799 20.2169 28.4969 19.7469 28.5941 19.1069L29.5485 12.8111L25.2265 8.46398C24.7821 8.01683 25.0279 7.25397 25.648 7.15254L31.5416 6.17825L34.3034 0.438217C34.5849 -0.146072 35.4164 -0.146072 35.6979 0.438217L38.4611 6.17825L44.3533 7.15254C44.9748 7.25397 45.2205 8.01683 44.7762 8.46398L40.4528 12.8111L41.4072 19.1069C41.5043 19.7469 40.8214 20.2169 40.2599 19.8969Z" fill="#65735B"/>
<path fill-rule="evenodd" clip-rule="evenodd" d="M65.2599 19.8969L60.0006 16.9012L54.7414 19.8969C54.1799 20.2169 53.4969 19.7469 53.5941 19.1069L54.5485 12.8111L50.2265 8.46398C49.7821 8.01683 50.0279 7.25397 50.648 7.15254L56.5416 6.17825L59.3034 0.438217C59.5849 -0.146072 60.4164 -0.146072 60.6979 0.438217L63.4611 6.17825L69.3533 7.15254C69.9748 7.25397 70.2205 8.01683 69.7762 8.46398L65.4528 12.8111L66.4072 19.1069C66.5043 19.7469 65.8214 20.2169 65.2599 19.8969Z" fill="#65735B"/>
<path fill-rule="evenodd" clip-rule="evenodd" d="M90.2599 19.8969L85.0006 16.9012L79.7414 19.8969C79.1799 20.2169 78.4969 19.7469 78.5941 19.1069L79.5485 12.8111L75.2265 8.46398C74.7821 8.01683 75.0279 7.25397 75.648 7.15254L81.5416 6.17825L84.3034 0.438217C84.5849 -0.146072 85.4164 -0.146072 85.6979 0.438217L88.4611 6.17825L94.3533 7.15254C94.9748 7.25397 95.2205 8.01683 94.7762 8.46398L90.4528 12.8111L91.4072 19.1069C91.5043 19.7469 90.8214 20.2169 90.2599 19.8969Z" fill="#65735B"/>
<mask id="path-5-inside-1" fill="white">
<path fill-rule="evenodd" clip-rule="evenodd" d="M115.26 19.8969L110.001 16.9012L104.741 19.8969C104.18 20.2169 103.497 19.7469 103.594 19.1069L104.548 12.8111L100.226 8.46398C99.7821 8.01683 100.028 7.25397 100.648 7.15254L106.542 6.17825L109.303 0.438217C109.585 -0.146072 110.416 -0.146072 110.698 0.438217L113.461 6.17825L119.353 7.15254C119.975 7.25397 120.221 8.01683 119.776 8.46398L115.453 12.8111L116.407 19.1069C116.504 19.7469 115.821 20.2169 115.26 19.8969Z"/>
</mask>
<path d="M110.001 16.9012L110.496 16.0322L110.001 15.7503L109.506 16.0322L110.001 16.9012ZM104.741 19.8969L104.246 19.028L104.246 19.0281L104.741 19.8969ZM103.594 19.1069L104.583 19.257L104.583 19.2568L103.594 19.1069ZM104.548 12.8111L105.537 12.961L105.613 12.4632L105.258 12.1061L104.548 12.8111ZM100.226 8.46398L99.5172 9.16886L99.5173 9.16903L100.226 8.46398ZM100.648 7.15254L100.809 8.13943L100.811 8.13915L100.648 7.15254ZM106.542 6.17825L106.705 7.16486L107.217 7.0801L107.443 6.61182L106.542 6.17825ZM109.303 0.438217L108.402 0.00422476L108.402 0.00464724L109.303 0.438217ZM110.698 0.438217L111.599 0.00446513L111.599 0.00422481L110.698 0.438217ZM113.461 6.17825L112.56 6.612L112.785 7.0801L113.298 7.16485L113.461 6.17825ZM119.353 7.15254L119.19 8.13915L119.192 8.13948L119.353 7.15254ZM119.776 8.46398L120.485 9.16914L120.486 9.16886L119.776 8.46398ZM115.453 12.8111L114.744 12.106L114.389 12.4631L114.464 12.961L115.453 12.8111ZM116.407 19.1069L115.418 19.2568L115.418 19.257L116.407 19.1069ZM115.755 19.028L110.496 16.0322L109.506 17.7701L114.765 20.7658L115.755 19.028ZM109.506 16.0322L104.246 19.028L105.236 20.7658L110.496 17.7701L109.506 16.0322ZM104.246 19.0281C104.414 18.9325 104.61 19.0744 104.583 19.257L102.605 18.9568C102.383 20.4194 103.946 21.5013 105.237 20.7657L104.246 19.0281ZM104.583 19.2568L105.537 12.961L103.56 12.6613L102.605 18.957L104.583 19.2568ZM105.258 12.1061L100.936 7.75893L99.5173 9.16903L103.839 13.5162L105.258 12.1061ZM100.936 7.7591C101.061 7.88474 100.998 8.10863 100.809 8.13943L100.487 6.16566C99.0581 6.39931 98.5036 8.14892 99.5172 9.16886L100.936 7.7591ZM100.811 8.13915L106.705 7.16486L106.378 5.19164L100.485 6.16593L100.811 8.13915ZM107.443 6.61182L110.205 0.871786L108.402 0.00464724L105.64 5.74468L107.443 6.61182ZM110.204 0.872209C110.122 1.0426 109.879 1.0426 109.797 0.872209L111.599 0.00422481C110.954 -1.33474 109.047 -1.33474 108.402 0.00422481L110.204 0.872209ZM109.797 0.871968L112.56 6.612L114.362 5.7445L111.599 0.00446514L109.797 0.871968ZM113.298 7.16485L119.19 8.13914L119.516 6.16594L113.624 5.19165L113.298 7.16485ZM119.192 8.13948C119.006 8.10916 118.941 7.88577 119.067 7.7591L120.486 9.16886C121.5 8.14789 120.943 6.39878 119.514 6.1656L119.192 8.13948ZM119.067 7.75881L114.744 12.106L116.162 13.5163L120.485 9.16914L119.067 7.75881ZM114.464 12.961L115.418 19.2568L117.396 18.957L116.441 12.6613L114.464 12.961ZM115.418 19.257C115.391 19.0744 115.587 18.9325 115.755 19.0281L114.765 20.7657C116.055 21.5013 117.618 20.4194 117.396 18.9568L115.418 19.257Z" fill="#65735B" mask="url(#path-5-inside-1)"/>
<mask id="mask0" mask-type="alpha" maskUnits="userSpaceOnUse" x="100" y="0" width="16" height="20">
<rect x="100" width="16" height="20" fill="#C4C4C4"/>
</mask>
<g mask="url(#mask0)">
<path fill-rule="evenodd" clip-rule="evenodd" d="M115.26 19.8969L110.001 16.9012L104.741 19.8969C104.18 20.2169 103.497 19.7469 103.594 19.1069L104.548 12.8111L100.226 8.46398C99.7821 8.01683 100.028 7.25397 100.648 7.15254L106.542 6.17825L109.303 0.438217C109.585 -0.146072 110.416 -0.146072 110.698 0.438217L113.461 6.17825L119.353 7.15254C119.975 7.25397 120.221 8.01683 119.776 8.46398L115.453 12.8111L116.407 19.1069C116.504 19.7469 115.821 20.2169 115.26 19.8969Z" fill="#65735B"/>
</g>
</svg>
