<svg width="20" height="20" viewBox="0 0 20 20" fill="none" xmlns="http://www.w3.org/2000/svg">
  <path d="M12.8942 13.7724L13.7724 12.8943L10.625 9.74663V5.83335H9.37501V10.2532L12.8942 13.7724ZM10.0014 17.9167C8.90644 17.9167 7.87725 17.7089 6.9138 17.2933C5.95034 16.8778 5.11227 16.3138 4.39959 15.6015C3.6869 14.8891 3.12268 14.0514 2.70695 13.0884C2.29121 12.1253 2.08334 11.0964 2.08334 10.0014C2.08334 8.90647 2.29112 7.87728 2.70668 6.91383C3.12223 5.95037 3.68619 5.11231 4.39855 4.39963C5.11093 3.68693 5.94863 3.12272 6.91166 2.70698C7.87467 2.29124 8.90365 2.08337 9.99859 2.08337C11.0935 2.08337 12.1227 2.29115 13.0862 2.70671C14.0496 3.12226 14.8877 3.68622 15.6004 4.39858C16.3131 5.11096 16.8773 5.94866 17.293 6.91169C17.7088 7.8747 17.9166 8.90368 17.9166 9.99863C17.9166 11.0936 17.7089 12.1228 17.2933 13.0862C16.8777 14.0497 16.3138 14.8877 15.6014 15.6004C14.8891 16.3131 14.0514 16.8773 13.0883 17.2931C12.1253 17.7088 11.0963 17.9167 10.0014 17.9167ZM9.99999 16.6667C11.8472 16.6667 13.4201 16.0174 14.7187 14.7188C16.0174 13.4202 16.6667 11.8472 16.6667 10C16.6667 8.1528 16.0174 6.57988 14.7187 5.28127C13.4201 3.98266 11.8472 3.33335 9.99999 3.33335C8.15277 3.33335 6.57985 3.98266 5.28124 5.28127C3.98263 6.57988 3.33332 8.1528 3.33332 10C3.33332 11.8472 3.98263 13.4202 5.28124 14.7188C6.57985 16.0174 8.15277 16.6667 9.99999 16.6667Z" fill="#191D24" fill-opacity="0.4"/>
</svg>