<svg width="40" height="32" viewBox="0 0 40 32" fill="none" xmlns="http://www.w3.org/2000/svg">
<g id="Group">
<path id="Vector" d="M0.609375 0.929688C0.429688 1.02344 0.25 1.20312 0.15625 1.39062C0.0078125 1.67969 0 1.84375 0 4.28125C0 6.71875 0.0078125 6.88281 0.15625 7.17188C0.335938 7.52344 0.78125 7.79688 1.17188 7.79688C1.5625 7.79688 2.00781 7.52344 2.1875 7.17188C2.32812 6.89062 2.34375 6.71875 2.34375 4.98438V3.10938H4.21875C5.95312 3.10938 6.125 3.09375 6.40625 2.95312C6.75781 2.77344 7.03125 2.32812 7.03125 1.9375C7.03125 1.54688 6.75781 1.10156 6.40625 0.921875C6.11719 0.773438 5.95312 0.765625 3.5 0.765625C1.0625 0.773438 0.882812 0.78125 0.609375 0.929688Z" fill="#0036E3"/>
<path id="Vector_2" d="M33.5781 0.929688C33.2422 1.10156 32.9688 1.5625 32.9688 1.9375C32.9688 2.32812 33.2422 2.77344 33.5938 2.95312C33.875 3.09375 34.0469 3.10938 35.7812 3.10938H37.6562V4.98438C37.6562 6.71875 37.6719 6.89062 37.8125 7.17188C37.9922 7.52344 38.4375 7.79688 38.8281 7.79688C39.2188 7.79688 39.6641 7.52344 39.8438 7.17188C39.9922 6.88281 40 6.71875 40 4.28125C40 1.84375 39.9922 1.67969 39.8438 1.39062C39.7422 1.1875 39.5781 1.02344 39.375 0.921875C39.0859 0.773438 38.9219 0.765625 36.4688 0.765625C34.0312 0.773438 33.8516 0.78125 33.5781 0.929688Z" fill="#0036E3"/>
<path id="Vector_3" d="M18.827 3.15614C18.7176 3.17176 18.3192 3.22645 17.9286 3.27332C14.7489 3.67176 10.9207 5.39832 7.4598 7.99207C4.96761 9.86707 2.40511 12.4139 0.61605 14.7889C-0.2277 15.9139 -0.219887 16.1171 0.733238 17.3671C3.07699 20.453 6.3348 23.4139 9.7098 25.5389C10.7567 26.203 13.1082 27.3671 14.1473 27.7499C16.7645 28.7108 19.1786 29.0546 21.4676 28.8046C25.6004 28.3593 29.8582 26.3124 34.1395 22.7264C35.8036 21.328 37.9832 19.0468 39.2645 17.3671C40.2411 16.0858 40.2411 15.9139 39.2645 14.6327C38.4442 13.5546 37.4286 12.4061 36.2957 11.2733C31.9051 6.89832 26.9911 4.08582 22.3426 3.30457C21.6317 3.18739 19.2411 3.08582 18.827 3.15614ZM22.1707 5.64051C27.0457 6.53114 32.2254 9.96082 36.7411 15.2811L37.3504 15.9999L36.7411 16.7186C35.9207 17.703 33.8895 19.7655 32.8895 20.6483C29.3036 23.7968 25.6864 25.7264 22.1864 26.3671C21.1707 26.5468 18.8348 26.5468 17.8426 26.3671C12.9364 25.453 7.75667 22.0233 3.24886 16.7186L2.63949 15.9999L3.21761 15.3124C4.0223 14.3593 6.13168 12.2108 7.10824 11.3514C10.9676 7.96082 14.8426 5.98426 18.5145 5.53114C19.3114 5.43739 21.3817 5.49989 22.1707 5.64051Z" fill="#0036E3"/>
<path id="Vector_4" d="M18.793 7.87508C17.1211 8.13289 15.4336 9.00008 14.2149 10.211C13.1602 11.2735 12.418 12.5782 12.0274 14.0938C11.7774 15.047 11.7696 16.9766 12.0196 17.8751C12.4493 19.461 13.1602 20.7345 14.2149 21.7891C15.2696 22.8438 16.543 23.5548 18.129 23.9845C19.0274 24.2345 20.9571 24.2266 21.9102 23.9766C24.9805 23.1798 27.1368 21.0157 27.9961 17.8751C28.2227 17.0235 28.2227 14.9766 27.9961 14.1251C27.5508 12.5157 26.8399 11.2579 25.7618 10.1876C24.6993 9.12508 23.4415 8.41414 21.9571 8.03914C21.1993 7.84383 19.5586 7.75789 18.793 7.87508ZM21.1524 10.2657C22.3243 10.5079 23.3008 11.0391 24.1368 11.8829C24.9024 12.6641 25.4024 13.5157 25.6836 14.547C25.8633 15.2032 25.8633 16.797 25.6836 17.4532C25.0821 19.6407 23.3399 21.2813 21.1602 21.7345C17.1055 22.5704 13.4336 18.9063 14.2696 14.8438C14.918 11.6876 18.0274 9.61726 21.1524 10.2657Z" fill="#0036E3"/>
<path id="Vector_5" d="M19.1807 12.5936C18.5244 12.7577 18.0322 13.0389 17.5322 13.5389C16.1494 14.9139 16.1494 17.078 17.54 18.4608C19.5557 20.4842 22.9697 19.3827 23.4541 16.5546C23.6416 15.453 23.2822 14.3592 22.4619 13.5311C21.5869 12.6483 20.3604 12.2967 19.1807 12.5936ZM20.5479 14.9842C20.8994 15.1639 21.1729 15.6092 21.1729 15.9999C21.1729 16.5936 20.5947 17.1717 19.9932 17.1717C19.6338 17.1717 19.1494 16.8671 18.9775 16.5311C18.6885 15.9686 18.8682 15.3514 19.4229 15.0155C19.7979 14.7889 20.1416 14.7811 20.5479 14.9842Z" fill="#0036E3"/>
<path id="Vector_6" d="M0.609375 24.3672C0.429688 24.4609 0.25 24.6406 0.15625 24.8281C0.0078125 25.1172 0 25.2812 0 27.7188C0 30.1562 0.0078125 30.3203 0.15625 30.6094C0.257812 30.8125 0.421875 30.9766 0.625 31.0781C0.914062 31.2266 1.07812 31.2344 3.51562 31.2344C5.95312 31.2344 6.11719 31.2266 6.40625 31.0781C6.75781 30.8984 7.03125 30.4531 7.03125 30.0625C7.03125 29.6719 6.75781 29.2266 6.40625 29.0469C6.125 28.9062 5.95312 28.8906 4.21875 28.8906H2.34375V27.0156C2.34375 25.2812 2.32812 25.1094 2.1875 24.8281C1.89844 24.2578 1.19531 24.0547 0.609375 24.3672Z" fill="#0036E3"/>
<path id="Vector_7" d="M38.2656 24.3672C38.0859 24.4609 37.9062 24.6406 37.8125 24.8281C37.6719 25.1094 37.6562 25.2812 37.6562 27.0156V28.8906H35.7812C34.0469 28.8906 33.875 28.9062 33.5938 29.0469C33.2422 29.2266 32.9688 29.6719 32.9688 30.0625C32.9688 30.4531 33.2422 30.8984 33.5938 31.0781C33.8828 31.2266 34.0469 31.2344 36.4844 31.2344C38.9219 31.2344 39.0859 31.2266 39.375 31.0781C39.5781 30.9766 39.7422 30.8125 39.8438 30.6094C39.9922 30.3203 40 30.1562 40 27.7188C40 25.2812 39.9922 25.1172 39.8438 24.8281C39.5547 24.2578 38.8516 24.0547 38.2656 24.3672Z" fill="#0036E3"/>
</g>
</svg>
