<svg width="20" height="20" viewBox="0 0 20 20" fill="none" xmlns="http://www.w3.org/2000/svg">
  <path d="M9.99999 17.9167C8.91452 17.9167 7.89022 17.7086 6.92709 17.2925C5.96395 16.8763 5.12394 16.3098 4.40705 15.593C3.69018 14.8761 3.12368 14.0361 2.70755 13.0729C2.29141 12.1098 2.08334 11.0855 2.08334 10C2.08334 8.90601 2.29141 7.87957 2.70755 6.92071C3.12368 5.96185 3.69018 5.12397 4.40705 4.40708C5.12394 3.69021 5.96395 3.12371 6.92709 2.70758C7.89022 2.29144 8.91452 2.08337 9.99999 2.08337C11.094 2.08337 12.1204 2.29144 13.0793 2.70758C14.0382 3.12371 14.876 3.69021 15.5929 4.40708C16.3098 5.12397 16.8763 5.96185 17.2924 6.92071C17.7086 7.87957 17.9166 8.90601 17.9166 10C17.9166 11.0855 17.7086 12.1098 17.2924 13.0729C16.8763 14.0361 16.3098 14.8761 15.5929 15.593C14.876 16.3098 14.0382 16.8763 13.0793 17.2925C12.1204 17.7086 11.094 17.9167 9.99999 17.9167ZM9.99999 16.6491C10.4252 16.085 10.7831 15.516 11.0737 14.9423C11.3643 14.3686 11.601 13.7415 11.7837 13.0609H8.21632C8.4097 13.7628 8.64902 14.4007 8.93428 14.9744C9.21953 15.5481 9.57477 16.1063 9.99999 16.6491ZM8.38624 16.4199C8.06679 15.9616 7.77993 15.4405 7.52566 14.8566C7.27138 14.2727 7.07373 13.6741 6.9327 13.0609H4.10574C4.54592 13.9263 5.1362 14.6533 5.87659 15.242C6.617 15.8307 7.45355 16.2233 8.38624 16.4199ZM11.6137 16.4199C12.5464 16.2233 13.383 15.8307 14.1234 15.242C14.8638 14.6533 15.4541 13.9263 15.8942 13.0609H13.0673C12.8995 13.6795 12.6885 14.2807 12.4343 14.8646C12.18 15.4485 11.9065 15.9669 11.6137 16.4199ZM3.58172 11.8109H6.67949C6.62714 11.5011 6.58922 11.1974 6.56572 10.8999C6.54222 10.6023 6.53047 10.3024 6.53047 10C6.53047 9.69767 6.54222 9.39772 6.56572 9.10017C6.58922 8.80263 6.62714 8.49894 6.67949 8.1891H3.58172C3.50159 8.47223 3.44016 8.76657 3.39743 9.07213C3.35469 9.37768 3.33332 9.68698 3.33332 10C3.33332 10.3131 3.35469 10.6224 3.39743 10.9279C3.44016 11.2335 3.50159 11.5278 3.58172 11.8109ZM7.92947 11.8109H12.0705C12.1229 11.5011 12.1608 11.2001 12.1843 10.9079C12.2078 10.6157 12.2196 10.3131 12.2196 10C12.2196 9.68698 12.2078 9.38436 12.1843 9.09217C12.1608 8.79996 12.1229 8.49894 12.0705 8.1891H7.92947C7.87712 8.49894 7.83919 8.79996 7.81568 9.09217C7.79218 9.38436 7.78043 9.68698 7.78043 10C7.78043 10.3131 7.79218 10.6157 7.81568 10.9079C7.83919 11.2001 7.87712 11.5011 7.92947 11.8109ZM13.3205 11.8109H16.4183C16.4984 11.5278 16.5598 11.2335 16.6026 10.9279C16.6453 10.6224 16.6667 10.3131 16.6667 10C16.6667 9.68698 16.6453 9.37768 16.6026 9.07213C16.5598 8.76657 16.4984 8.47223 16.4183 8.1891H13.3205C13.3728 8.49894 13.4108 8.80263 13.4343 9.10017C13.4578 9.39772 13.4695 9.69767 13.4695 10C13.4695 10.3024 13.4578 10.6023 13.4343 10.8999C13.4108 11.1974 13.3728 11.5011 13.3205 11.8109ZM13.0673 6.93915H15.8942C15.4487 6.06306 14.8624 5.33602 14.1354 4.75802C13.4084 4.18003 12.5678 3.78474 11.6137 3.57212C11.9332 4.05717 12.2174 4.58762 12.4663 5.16348C12.7152 5.73934 12.9156 6.33123 13.0673 6.93915ZM8.21632 6.93915H11.7837C11.5903 6.24256 11.347 5.60073 11.0537 5.01365C10.7604 4.42658 10.4092 3.87235 9.99999 3.35098C9.5908 3.87235 9.23957 4.42658 8.9463 5.01365C8.65302 5.60073 8.4097 6.24256 8.21632 6.93915ZM4.10574 6.93915H6.9327C7.08441 6.33123 7.28473 5.73934 7.53368 5.16348C7.78261 4.58762 8.06679 4.05717 8.38624 3.57212C7.42684 3.78474 6.58495 4.18138 5.86057 4.76204C5.13621 5.34271 4.55127 6.06841 4.10574 6.93915Z" fill="#191D24" fill-opacity="0.4"/>
</svg>