<svg width="40" height="40" viewBox="0 0 40 40" fill="none" xmlns="http://www.w3.org/2000/svg">
<g clip-path="url(#clip0_1175_31187)">
<path opacity="0.966" fill-rule="evenodd" clip-rule="evenodd" d="M39.9609 8.32031C39.9609 16.0807 39.9609 23.8412 39.9609 31.6016C39.507 33.3706 38.3872 34.4773 36.6016 34.9219C25.5078 34.974 14.4141 34.974 3.32031 34.9219C1.53327 34.4759 0.413484 33.3691 -0.0390625 31.6016C-0.0390625 23.8412 -0.0390625 16.0807 -0.0390625 8.32031C0.415555 6.55063 1.53534 5.44387 3.32031 5C14.4141 4.94792 25.5078 4.94792 36.6016 5C38.3866 5.44387 39.5063 6.55063 39.9609 8.32031ZM3.63281 6.67969C14.5183 6.66667 25.4037 6.67969 36.2891 6.71875C37.2916 6.99219 37.9297 7.63021 38.2031 8.63281C38.2552 16.1849 38.2552 23.737 38.2031 31.2891C37.9297 32.2916 37.2916 32.9297 36.2891 33.2031C25.4037 33.2552 14.5182 33.2552 3.63281 33.2031C2.63021 32.9297 1.99219 32.2916 1.71875 31.2891C1.66666 23.737 1.66666 16.1849 1.71875 8.63281C2.00648 7.62902 2.6445 6.97798 3.63281 6.67969ZM12.1484 13.3203C14.0841 13.42 14.9826 14.4356 14.8438 16.3672C14.3839 17.7366 13.4334 18.3487 11.9922 18.2031C10.5152 17.7363 9.87711 16.7338 10.0781 15.1953C10.4166 14.1661 11.1066 13.5411 12.1484 13.3203Z" fill="#0036E3"/>
<path opacity="0.946" fill-rule="evenodd" clip-rule="evenodd" d="M11.8379 11.6016C14.7407 11.5359 16.3553 12.9422 16.6816 15.8203C16.5116 18.0083 15.3658 19.3755 13.2441 19.9219C10.764 20.1731 9.13633 19.1184 8.36133 16.7578C8.02532 14.0156 9.18422 12.2969 11.8379 11.6016ZM12.1504 13.3203C11.1086 13.5411 10.4185 14.1661 10.0801 15.1953C9.87907 16.7337 10.5171 17.7363 11.9941 18.2031C13.4353 18.3487 14.3859 17.7366 14.8457 16.3672C14.9845 14.4356 14.0861 13.42 12.1504 13.3203Z" fill="#0036E3"/>
<path opacity="0.961" fill-rule="evenodd" clip-rule="evenodd" d="M23.8729 13.2422C27.3626 13.2292 30.8522 13.2422 34.3417 13.2813C34.9713 13.5504 35.1406 14.0062 34.8495 14.6484C34.7546 14.7695 34.6374 14.8606 34.4979 14.9219C30.9042 14.974 27.3104 14.974 23.7167 14.9219C23.0566 14.2877 23.1087 13.7277 23.8729 13.2422Z" fill="#0036E3"/>
<path opacity="0.961" fill-rule="evenodd" clip-rule="evenodd" d="M23.7098 19.9609C27.3037 19.9479 30.8974 19.9609 34.4911 20C34.839 20.1618 34.9952 20.4352 34.9598 20.8203C34.9478 21.2368 34.7395 21.5102 34.3348 21.6406C30.8452 21.6927 27.3557 21.6927 23.8661 21.6406C23.2958 21.372 23.1265 20.9424 23.3583 20.3516C23.4916 20.2315 23.6088 20.1013 23.7098 19.9609Z" fill="#0036E3"/>
<path opacity="0.954" fill-rule="evenodd" clip-rule="evenodd" d="M8.47656 21.6016C11.133 21.5885 13.7892 21.6016 16.4453 21.6406C18.3152 22.0001 19.4741 23.1069 19.9219 24.9609C19.997 25.984 19.9709 26.9996 19.8438 28.0078C19.3695 28.4192 18.9007 28.4192 18.4375 28.0078C18.3854 27.9037 18.3334 27.7995 18.2813 27.6953C18.2742 26.8054 18.2221 25.92 18.125 25.0391C17.7971 24.0866 17.133 23.5267 16.1328 23.3594C13.6849 23.3073 11.237 23.3073 8.78906 23.3594C7.78884 23.5267 7.12478 24.0866 6.79688 25.0391C6.69976 25.92 6.64767 26.8054 6.64063 27.6953C6.32101 28.3499 5.83924 28.4931 5.19531 28.125C5.10146 28.0545 5.03635 27.9634 5 27.8516C4.94792 26.8881 4.94792 25.9245 5 24.9609C5.46163 23.1059 6.62048 21.9861 8.47656 21.6016Z" fill="#0036E3"/>
<path opacity="0.961" fill-rule="evenodd" clip-rule="evenodd" d="M23.7859 26.6016C27.3277 26.5885 30.8693 26.6016 34.4109 26.6406C34.8174 26.7634 34.9997 27.0369 34.9578 27.4609C34.9997 27.885 34.8174 28.1584 34.4109 28.2813C30.8692 28.3334 27.3275 28.3334 23.7859 28.2813C23.061 27.7216 23.061 27.1617 23.7859 26.6016Z" fill="#0036E3"/>
</g>
<defs>
<clipPath id="clip0_1175_31187">
<rect width="40" height="40" fill="white"/>
</clipPath>
</defs>
</svg>
