<svg width="20" height="20" viewBox="0 0 20 20" fill="none" xmlns="http://www.w3.org/2000/svg">
    <path d="M17.0833 10L13.7788 14.6763C13.6154 14.9092 13.4068 15.0908 13.153 15.2211C12.8993 15.3515 12.6282 15.4167 12.3397 15.4167H4.4231C4.00751 15.4167 3.65254 15.2695 3.35821 14.9751C3.06386 14.6808 2.91669 14.3258 2.91669 13.9102V6.08979C2.91669 5.67419 3.06386 5.31923 3.35821 5.02489C3.65254 4.73055 4.00751 4.58337 4.4231 4.58337H12.3397C12.6335 4.58337 12.906 4.65122 13.157 4.78692C13.4081 4.9226 13.6154 5.10689 13.7788 5.33979L17.0833 10ZM15.5545 10L12.7404 6.04171C12.6977 5.98294 12.6402 5.93353 12.5681 5.89346C12.496 5.85339 12.4199 5.83335 12.3397 5.83335H4.4231C4.35899 5.83335 4.30022 5.86006 4.24679 5.91348C4.19337 5.96691 4.16667 6.02568 4.16667 6.08979V13.9102C4.16667 13.9744 4.19337 14.0331 4.24679 14.0866C4.30022 14.14 4.35899 14.1667 4.4231 14.1667H12.3397C12.4199 14.1667 12.496 14.1467 12.5681 14.1066C12.6402 14.0665 12.6977 14.0171 12.7404 13.9583L15.5545 10ZM4.16667 10V14.1667V5.83335V10Z" fill="#191D24" fill-opacity="0.4"/>
</svg>