<svg width="40" height="40" viewBox="0 0 40 40" fill="none" xmlns="http://www.w3.org/2000/svg">
<g clip-path="url(#clip0_1175_31202)">
<path d="M29.4302 0.0856113C25.7896 0.616861 22.8599 3.24186 21.899 6.85124C21.7193 7.53092 21.6959 7.77311 21.6881 8.94499C21.6802 10.4294 21.7506 10.9215 22.1646 12.1872C22.6412 13.6715 23.4615 15.1481 24.6099 16.6012C25.5396 17.7731 27.2506 19.4294 28.5396 20.3825L28.9849 20.7184L28.7115 21.0231C27.7349 22.1012 27.7818 23.7106 28.8052 24.7262C30.1177 26.0153 32.2584 25.6637 33.0943 24.0075C33.2974 23.609 33.3209 23.4762 33.3209 22.8512C33.3209 22.2497 33.2896 22.0856 33.1177 21.7184C33.0006 21.484 32.7974 21.1715 32.6646 21.0309C32.5318 20.8903 32.4224 20.7575 32.4224 20.7497C32.4224 20.734 32.8521 20.3747 33.3677 19.9528C37.1646 16.8825 39.3209 13.445 39.6959 9.87467C40.0084 6.8278 38.6177 3.7028 36.1021 1.81217C34.2427 0.413736 31.6959 -0.242514 29.4302 0.0856113ZM32.5396 1.78874C32.8834 1.88249 33.524 2.13249 33.9537 2.34342C36.1256 3.39811 37.5474 5.25749 38.0552 7.69499C38.1959 8.35905 38.1724 9.91374 38.0162 10.6481C37.3521 13.7262 35.0865 16.7653 31.4615 19.445L30.6959 20.0153L30.2584 19.7106C28.8521 18.7419 26.8912 16.945 25.8834 15.7028C24.024 13.3903 23.1256 11.0309 23.2271 8.71061C23.3209 6.71061 24.0552 5.06999 25.4849 3.7028C26.5865 2.64811 27.9146 1.9528 29.3677 1.67936C30.1881 1.52311 31.7193 1.5778 32.5396 1.78874ZM31.2349 21.8747C31.6256 22.1169 31.8131 22.4684 31.774 22.9059C31.7349 23.3903 31.5474 23.6481 31.1256 23.8356C30.6881 24.0309 30.3131 23.9684 29.9537 23.6559C29.1802 22.9762 29.6646 21.7262 30.7037 21.7184C30.8521 21.7184 31.0943 21.7887 31.2349 21.8747Z" fill="#0036E3"/>
<path d="M30.1542 4.46058C28.2558 4.68715 26.7402 5.99183 26.2011 7.85121C26.0371 8.42152 26.0214 9.48402 26.1621 10.0778C26.373 10.945 26.7714 11.6325 27.4511 12.3043C28.4824 13.32 29.5292 13.7262 30.9355 13.6481C32.1777 13.5778 33.1074 13.1559 33.9902 12.2653C35.0917 11.1481 35.5527 9.50746 35.1933 7.98402C34.9355 6.89808 34.1308 5.76527 33.1699 5.14027C32.3417 4.60902 31.1464 4.33558 30.1542 4.46058ZM31.9746 6.27308C34.3261 7.3434 34.3183 10.7106 31.9667 11.82C31.4824 12.0465 31.3808 12.07 30.6621 12.07C29.9746 12.0621 29.8261 12.0387 29.4355 11.8512C28.4824 11.3903 27.8261 10.5309 27.6542 9.5309C27.5449 8.91371 27.6933 8.06215 27.998 7.54652C28.7949 6.17933 30.5449 5.61683 31.9746 6.27308Z" fill="#0036E3"/>
<path d="M9.49338 10.7809C7.73557 10.984 5.91526 11.6949 4.45432 12.7574C3.80588 13.234 2.50901 14.5777 2.07151 15.234C0.19651 18.0465 -0.225365 21.3668 0.868385 24.7105C1.86057 27.7574 4.32151 30.9996 7.65745 33.6637C8.0637 33.9918 8.5012 34.3277 8.61838 34.4137L8.83713 34.5699L8.49338 34.9371C8.30588 35.1324 8.04807 35.4996 7.92307 35.7496C7.71995 36.1715 7.69651 36.2887 7.69651 37.0309C7.69651 37.7965 7.71213 37.8824 7.9387 38.3199C8.63401 39.6402 10.0871 40.273 11.4699 39.8512C13.6106 39.2027 14.2981 36.484 12.7043 34.9293L12.3606 34.5934L12.9543 34.1402C15.1731 32.4684 17.3137 30.234 18.6106 28.2418C19.5949 26.7262 20.3996 24.859 20.7434 23.2809C20.9387 22.3746 20.9856 20.4371 20.8293 19.4527C20.3137 16.2027 18.2824 13.4059 15.3371 11.8902C13.5403 10.9684 11.4153 10.5621 9.49338 10.7809ZM12.3449 12.4684C15.6262 13.1402 18.259 15.6324 19.1184 18.8824C19.384 19.9137 19.4543 21.5777 19.2668 22.6559C18.6574 26.1715 16.0481 29.8277 11.9387 32.9293C11.3528 33.3746 10.8059 33.773 10.7278 33.8121C10.6184 33.8746 10.4543 33.7887 9.89963 33.398C6.16526 30.7184 3.4387 27.4293 2.39182 24.3512C1.68088 22.2652 1.65745 20.0309 2.32151 18.1637C2.79026 16.8668 3.47776 15.7965 4.49338 14.8043C6.57151 12.7652 9.51682 11.898 12.3449 12.4684ZM11.1496 35.7105C11.4621 35.8277 11.7199 36.0855 11.884 36.4449C12.0793 36.8668 12.0715 37.234 11.8606 37.6559C11.4699 38.4215 10.5403 38.6559 9.84495 38.1793C9.42307 37.898 9.27463 37.6324 9.23557 37.1168C9.20432 36.734 9.23557 36.5934 9.38401 36.3277C9.71995 35.734 10.4934 35.4605 11.1496 35.7105Z" fill="#0036E3"/>
<path d="M9.46915 14.8511C8.80509 14.9683 7.73478 15.4058 7.14103 15.8042C6.44572 16.2651 5.57853 17.1636 5.17228 17.8589C4.99259 18.1558 4.73478 18.7339 4.60197 19.1401C4.35978 19.8433 4.34415 19.9448 4.34415 21.0151C4.33634 22.3433 4.4379 22.7964 4.96915 23.8667C5.78165 25.5229 7.25822 26.7183 9.07072 27.1948C9.96134 27.4292 11.2582 27.4292 12.1488 27.1948C13.3988 26.8589 14.3285 26.3042 15.2504 25.3198C15.7192 24.8276 15.9301 24.5151 16.2348 23.8901C16.7738 22.7886 16.9067 22.2183 16.8988 21.0151C16.8988 20.187 16.8676 19.9292 16.6879 19.3354C16.0473 17.2183 14.4301 15.6011 12.3442 14.9995C11.6723 14.8042 10.1488 14.7261 9.46915 14.8511ZM11.5785 16.4136C12.3285 16.5698 13.3754 17.1323 13.9223 17.6792C14.891 18.6558 15.3442 19.7261 15.3442 21.0542C15.352 22.3901 14.9223 23.4292 13.9848 24.3823C12.1098 26.2808 9.11759 26.3042 7.26603 24.4214C6.07072 23.2104 5.60197 21.5308 6.00822 19.9292C6.43009 18.2573 7.7504 16.9136 9.38322 16.4839C10.0317 16.3198 10.9613 16.2886 11.5785 16.4136Z" fill="#0036E3"/>
<path d="M30.1507 27.4918C30.0179 27.6246 29.9241 27.8043 29.9241 27.9215C29.9241 28.2574 29.6819 28.7418 29.4241 28.9293C29.1897 29.0934 29.096 29.1012 27.2288 29.1403C25.01 29.1871 24.8694 29.2184 24.1819 29.8512C22.7757 31.1481 23.1507 33.3824 24.9163 34.2106L25.3538 34.4137L30.1741 34.4528C34.9163 34.4918 34.9944 34.4918 35.2132 34.6559C35.9007 35.1715 35.9007 36.1559 35.2132 36.6715L34.9944 36.8356L25.471 36.8746C16.01 36.9137 15.9475 36.9137 15.7366 37.0778C15.3304 37.3746 15.2991 37.8824 15.6663 38.2496L15.8538 38.4371H25.4632C34.9944 38.4371 35.0804 38.4371 35.51 38.2731C36.0413 38.0778 36.7444 37.4528 36.9944 36.9528C37.5569 35.8356 37.3225 34.4918 36.4085 33.6403C36.1897 33.4371 35.846 33.1949 35.6429 33.1012C35.2835 32.9293 35.1975 32.9293 30.471 32.8903C25.9397 32.8512 25.6507 32.8434 25.4241 32.7028C24.7444 32.2887 24.7132 31.3121 25.3694 30.8824C25.5491 30.7574 25.8382 30.734 27.5022 30.7028C29.3694 30.6637 29.4241 30.6559 29.8538 30.4606C30.096 30.3434 30.4319 30.1246 30.6038 29.9762C31.1585 29.4762 31.5569 28.4918 31.4475 27.8981C31.3304 27.2809 30.596 27.0465 30.1507 27.4918Z" fill="#0036E3"/>
</g>
<defs>
<clipPath id="clip0_1175_31202">
<rect width="40" height="40" fill="white"/>
</clipPath>
</defs>
</svg>
