<svg width="25" height="24" viewBox="0 0 25 24" fill="none" xmlns="http://www.w3.org/2000/svg">
<g id="location_on_FILL0_wght300_GRAD0_opsz24 1">
<path id="Vector" d="M12.5017 11.8654C12.9992 11.8654 13.4246 11.6882 13.7778 11.3339C14.131 10.9795 14.3076 10.5536 14.3076 10.056C14.3076 9.55839 14.1305 9.133 13.7761 8.7798C13.4218 8.4266 12.9958 8.25 12.4983 8.25C12.0007 8.25 11.5753 8.42717 11.2221 8.7815C10.8689 9.13583 10.6923 9.56179 10.6923 10.0594C10.6923 10.557 10.8694 10.9824 11.2238 11.3356C11.5781 11.6888 12.0041 11.8654 12.5017 11.8654ZM12.5 19.5135C14.4564 17.7622 15.9535 16.0824 16.9913 14.474C18.0291 12.8657 18.548 11.457 18.548 10.2481C18.548 8.42498 17.9689 6.92627 16.8105 5.7519C15.6522 4.57753 14.2153 3.99035 12.5 3.99035C10.7846 3.99035 9.34771 4.57753 8.18938 5.7519C7.03105 6.92627 6.45188 8.42498 6.45188 10.2481C6.45188 11.457 6.97079 12.8657 8.0086 14.474C9.04644 16.0824 10.5436 17.7622 12.5 19.5135ZM12.5 21.5096C9.9833 19.3288 8.09613 17.2993 6.83843 15.4211C5.58075 13.5429 4.9519 11.8186 4.9519 10.2481C4.9519 7.94038 5.69838 6.07213 7.19133 4.64328C8.68426 3.21443 10.4538 2.5 12.5 2.5C14.5461 2.5 16.3156 3.21443 17.8086 4.64328C19.3015 6.07213 20.048 7.94038 20.048 10.2481C20.048 11.8186 19.4192 13.5429 18.1615 15.4211C16.9038 17.2993 15.0166 19.3288 12.5 21.5096Z" fill="#191D24" fill-opacity="0.5"/>
</g>
</svg>
