<svg width="24" height="24" viewBox="0 0 24 24" fill="none" xmlns="http://www.w3.org/2000/svg">
<g id="work_history_FILL0_wght300_GRAD0_opsz24 1">
<path id="Vector" d="M3.99998 19V7.99999V18.6923V18.5913V19ZM4.3077 20.5C3.80257 20.5 3.375 20.325 3.025 19.975C2.675 19.625 2.5 19.1974 2.5 18.6923V8.30771C2.5 7.80258 2.675 7.37501 3.025 7.02501C3.375 6.67501 3.80257 6.50001 4.3077 6.50001H8.5V4.80774C8.5 4.30262 8.675 3.87506 9.025 3.52506C9.375 3.17506 9.80257 3.00006 10.3077 3.00006H13.6923C14.1974 3.00006 14.625 3.17506 14.975 3.52506C15.325 3.87506 15.5 4.30262 15.5 4.80774V6.50001H19.6923C20.1974 6.50001 20.625 6.67501 20.975 7.02501C21.325 7.37501 21.5 7.80258 21.5 8.30771V12.5442C21.2705 12.3853 21.0323 12.2475 20.7855 12.1308C20.5387 12.0141 20.2769 11.9103 20 11.8193V8.30771C20 8.21796 19.9711 8.14424 19.9134 8.08654C19.8557 8.02884 19.782 7.99999 19.6923 7.99999H4.3077C4.21795 7.99999 4.14423 8.02884 4.08653 8.08654C4.02883 8.14424 3.99998 8.21796 3.99998 8.30771V18.6923C3.99998 18.782 4.02883 18.8557 4.08653 18.9134C4.14423 18.9711 4.21795 19 4.3077 19H11.575C11.6186 19.2667 11.676 19.5234 11.7471 19.7702C11.8183 20.0169 11.9064 20.2602 12.0116 20.5H4.3077ZM9.99998 6.50001H14V4.80774C14 4.71799 13.9711 4.64426 13.9134 4.58656C13.8557 4.52886 13.782 4.50001 13.6923 4.50001H10.3077C10.218 4.50001 10.1442 4.52886 10.0865 4.58656C10.0288 4.64426 9.99998 4.71799 9.99998 4.80774V6.50001ZM18 22.5C16.7513 22.5 15.6891 22.0621 14.8135 21.1865C13.9378 20.3109 13.5 19.2487 13.5 18C13.5 16.7513 13.9378 15.6891 14.8135 14.8135C15.6891 13.9378 16.7513 13.5 18 13.5C19.2487 13.5 20.3109 13.9378 21.1865 14.8135C22.0621 15.6891 22.5 16.7513 22.5 18C22.5 19.2487 22.0621 20.3109 21.1865 21.1865C20.3109 22.0621 19.2487 22.5 18 22.5ZM18.4423 17.8192V15.0577H17.5577V18.1808L19.65 20.2731L20.2731 19.65L18.4423 17.8192Z" fill="#0036E3"/>
</g>
</svg>
