<svg width="50" height="49" viewBox="0 0 50 49" fill="none" xmlns="http://www.w3.org/2000/svg">
<g id="4792540 1">
<g id="Group">
<path id="Vector" d="M24.2822 2.86162C23.9186 3.01474 21.459 4.06748 18.8271 5.20634C15.5063 6.64189 13.975 7.35009 13.8314 7.51279L13.6113 7.76162V12.1831C13.6113 14.6331 13.6592 16.9683 13.707 17.4181C13.9941 19.7436 14.9129 21.8204 16.425 23.5431C17.1715 24.3852 24.4066 30.4911 24.7895 30.5868C24.9043 30.6155 25.0957 30.6251 25.2201 30.5868C25.5551 30.5102 33.0199 24.2321 33.6037 23.5335C35.1063 21.7534 36.0059 19.7054 36.293 17.4181C36.3408 16.9683 36.3887 14.6618 36.3887 12.1735V7.73291L36.1303 7.47451C35.9484 7.30224 34.1109 6.46962 30.5986 4.95752C27.7084 3.71338 25.2488 2.67021 25.1436 2.6415C25.0383 2.61279 24.6555 2.70849 24.2822 2.86162ZM29.9766 6.59404L34.6182 8.6038L34.6469 12.1735C34.6564 14.1354 34.6277 16.2409 34.5703 16.8534C34.3789 19.0163 33.6707 20.7485 32.283 22.3851C32.0438 22.6722 30.3115 24.1938 28.4262 25.7634L25 28.6153L21.5738 25.7634C19.6885 24.1938 17.9563 22.6722 17.717 22.3851C16.358 20.7772 15.6307 19.0354 15.4297 16.9587C15.3818 16.394 15.334 14.2981 15.334 12.2884V8.64209L16.1283 8.29755C21.4494 5.94326 24.8852 4.50771 25.0957 4.54599C25.2297 4.56513 27.4213 5.49345 29.9766 6.59404Z" fill="#0036E3"/>
<path id="Vector_2" d="M26.1484 13.8292L23.708 16.2697L22.7031 15.2552C22.148 14.7001 21.5738 14.1833 21.4303 14.1068C20.8656 13.8101 20.2148 14.2408 20.2148 14.9107C20.2148 15.2265 20.3488 15.3796 21.727 16.7673C22.55 17.5999 23.3252 18.3081 23.4496 18.3464C23.9281 18.4613 24.1961 18.2603 26.7131 15.7624C29.4502 13.0445 29.7852 12.6521 29.7852 12.231C29.7852 11.829 29.3258 11.3888 28.9143 11.3888C28.6271 11.3888 28.3496 11.6281 26.1484 13.8292Z" fill="#0036E3"/>
<path id="Vector_3" d="M6.16563 16.2503C5.88809 16.3556 5.4957 16.5661 5.3043 16.7192C4.86406 17.0638 4.36641 17.7911 4.23242 18.26C4.175 18.4802 4.13672 20.7866 4.13672 24.4999V30.3856L7.31406 35.1421C10.2904 39.6114 10.4723 39.9272 10.3766 40.1474C10.3 40.3196 10.2617 41.2479 10.2617 43.0663V45.746L10.5393 46.0522L10.8168 46.3681L16.1857 46.3968C19.7842 46.4159 21.6887 46.3872 21.9375 46.3202C22.5883 46.1479 22.6074 46.0427 22.6074 43.0184C22.6074 40.444 22.5691 40.0804 22.3012 39.8985C22.2437 39.8602 22.2629 39.5444 22.3586 39.085C22.8467 36.769 22.483 34.7688 21.2771 33.0462C20.3871 31.7829 19.2291 30.8833 17.784 30.3378L17.1045 30.0794L15.4201 27.5528C13.5922 24.8157 13.3242 24.519 12.3959 24.2511C11.793 24.0788 10.9986 24.1171 10.5488 24.3563L10.2713 24.4999L10.2426 21.5044C10.2043 18.0686 10.1756 17.9538 9.39082 17.0925C8.57734 16.1929 7.27578 15.8579 6.16563 16.2503ZM7.71602 17.9921C8.42422 18.327 8.38594 18.1165 8.44336 23.0261L8.49121 27.438L10.6445 30.6823C11.8313 32.4624 12.9223 34.0606 13.0754 34.2329C13.4295 34.654 13.975 34.6827 14.3291 34.2999C14.798 33.7927 14.7406 33.6778 12.5586 30.3856C10.7211 27.6198 10.5488 27.3231 10.5488 26.9499C10.5488 26.1843 11.2188 25.7153 11.9652 25.9641C12.2811 26.0694 12.4916 26.3374 14.109 28.7587C15.0947 30.2229 16.0039 31.4862 16.1188 31.5532C16.2432 31.6202 16.559 31.7446 16.8174 31.8308C18.7219 32.4624 20.1096 33.8788 20.6551 35.745C20.8752 36.5106 20.8752 37.6495 20.6551 38.7309L20.4828 39.621H16.4441L12.415 39.6114L9.13242 34.7114L5.85938 29.8114V24.2989V18.7864L6.07949 18.461C6.29961 18.1261 6.82598 17.8007 7.1418 17.8007C7.24707 17.8007 7.50547 17.8868 7.71602 17.9921ZM20.8848 43.0184V44.5975H16.4346H11.9844V43.0184V41.4393H16.4346H20.8848V43.0184Z" fill="#0036E3"/>
<path id="Vector_4" d="M42.0352 16.1643C41.1738 16.4418 40.3699 17.15 40.0063 17.9444C39.7957 18.4037 39.7861 18.5282 39.7574 21.4088C39.7383 23.0549 39.6904 24.4043 39.6617 24.4043C39.6234 24.4043 39.4225 24.3373 39.2119 24.2608C38.7143 24.0789 38.1687 24.0789 37.5563 24.2608C36.6662 24.5287 36.3887 24.835 34.5799 27.553L32.8955 30.0891L32.3979 30.2518C31.3068 30.6155 30.5316 31.1131 29.5938 32.0606C28.8186 32.8262 28.608 33.1037 28.2252 33.8789C27.9764 34.3766 27.6988 35.0657 27.6127 35.4102C27.3926 36.2524 27.3926 38.1856 27.6127 39.066C27.7658 39.6977 27.7658 39.7264 27.584 40.0231C27.4021 40.3198 27.3926 40.5112 27.3926 42.9994C27.3926 46.0141 27.4117 46.1385 28.0434 46.3203C28.2826 46.3969 30.0818 46.416 33.776 46.3969L39.1641 46.3682L39.4225 46.1002L39.6904 45.8418L39.7191 43.2291C39.7383 41.4969 39.7191 40.5016 39.6426 40.2623L39.5373 39.8987L42.7051 35.1135L45.8729 30.3284L45.8441 24.2799L45.8154 18.2315L45.5953 17.82C45.0211 16.7481 44.1215 16.1643 42.9635 16.1164C42.5807 16.0973 42.1691 16.1164 42.0352 16.1643ZM43.5664 18.0784C43.7004 18.1645 43.8822 18.3942 43.9684 18.576C44.1311 18.8727 44.1406 19.3512 44.1406 24.3373V29.7733L40.8771 34.702L37.6137 39.6211H33.575H29.5363L29.3736 38.7789C28.9238 36.4246 29.4406 34.5584 30.9432 33.1612C31.6227 32.52 32.0342 32.2807 33.1348 31.8692L34.0439 31.5342L35.8336 28.8545C36.8193 27.3903 37.7285 26.127 37.8434 26.06C37.9678 25.993 38.2453 25.9451 38.4654 25.9356C39.0396 25.9356 39.4512 26.3567 39.4512 26.9405C39.4512 27.3233 39.2885 27.6008 37.4414 30.3858C35.2498 33.6875 35.1828 33.8311 35.6709 34.3096C36.025 34.6733 36.5801 34.6446 36.9246 34.233C37.0777 34.0608 38.1687 32.4625 39.3555 30.6825L41.5088 27.4381L41.5566 23.0262C41.6141 18.1166 41.5854 18.308 42.2744 17.9826C42.7146 17.7721 43.1932 17.8104 43.5664 18.0784ZM38.0156 43.0186V44.5977H33.5654H29.1152V43.0186V41.4395H33.5654H38.0156V43.0186Z" fill="#0036E3"/>
</g>
</g>
</svg>
