<svg width="48" height="47" viewBox="0 0 48 47" fill="none" xmlns="http://www.w3.org/2000/svg">
<g id="2153837 1" clip-path="url(#clip0_774_223)">
<g id="Group">
<path id="Vector" d="M1.9688 2.32261C1.51899 2.46949 0.7479 3.25894 0.610205 3.72711C0.45415 4.26871 0.45415 20.7003 0.610205 21.2419C0.75708 21.7468 1.51899 22.5087 2.02388 22.6556C2.31763 22.7382 5.42036 22.7658 15.2059 22.7658C29.6823 22.7658 28.544 22.8209 29.26 22.0314C29.6272 21.6275 29.8751 21.0859 29.8751 20.7095C29.8751 20.5994 29.9668 20.5627 30.2698 20.5627C30.6645 20.5627 30.6645 20.5627 30.8756 21.0675C31.151 21.7377 31.8762 22.3986 32.5647 22.6189C33.0053 22.7566 33.4001 22.775 35.5297 22.7474L37.9991 22.7199L38.5223 22.4628C39.1374 22.1599 39.7157 21.5541 39.936 20.9666L40.092 20.5627H40.854H41.625V21.4347C41.625 22.2425 41.6434 22.3343 41.8545 22.5363L42.0749 22.7658H44.5626H47.0502L47.2706 22.5363L47.5001 22.316V15.422V8.52808L47.2706 8.30777L47.0502 8.07828H44.5626H42.0749L41.8545 8.30777C41.6618 8.49136 41.625 8.61988 41.625 9.04214V9.54703H40.6428H39.6514L35.9795 6.97671L32.3168 4.4064H31.0959C30.0311 4.4064 29.8751 4.38804 29.8751 4.25953C29.8751 3.88316 29.6272 3.34156 29.26 2.93765C28.544 2.13902 29.6915 2.20328 15.1508 2.21246C6.05376 2.22164 2.19829 2.24918 1.9688 2.32261ZM21.1911 8.67496C17.9231 11.4289 15.2151 13.6779 15.1875 13.6779C15.1325 13.6779 3.81392 4.17691 3.48345 3.84644C3.30903 3.67203 3.44673 3.67203 15.2151 3.67203H27.1303L21.1911 8.67496ZM6.1731 8.04156C8.4313 9.94175 10.3315 11.5482 10.3866 11.6033C10.4784 11.6859 9.53286 12.6773 6.23735 15.9728L1.9688 20.2414V12.4111C1.9688 8.115 1.98716 4.58999 2.0147 4.58999C2.04224 4.58999 3.91489 6.14136 6.1731 8.04156ZM28.4063 9.62964V14.6693L27.2864 14.706C26.3409 14.7427 26.0838 14.7794 25.6983 14.9722C25.12 15.2476 24.56 15.7984 24.2754 16.3859C23.9633 17.0193 23.9542 18.2035 24.2571 18.8185C24.5784 19.4703 24.9456 19.865 25.579 20.1955C26.1297 20.4892 26.2124 20.5076 27.2864 20.5443C28.5165 20.5902 28.6083 20.6453 28.1768 21.0675L27.9565 21.297H15.4905H3.02446L7.33892 16.9826C11.0475 13.2648 11.6625 12.6865 11.7911 12.7966C14.5909 15.1558 14.9397 15.422 15.1875 15.422C15.3895 15.422 15.8118 15.1191 17.0877 14.0451L18.7217 12.6773L20.7137 14.6693L22.7149 16.6613L23.2381 16.1289L23.7706 15.6056L21.8245 13.6503L19.8692 11.7043L24.0735 8.15171C26.3776 6.20562 28.2961 4.59917 28.342 4.59917C28.3788 4.58999 28.4063 6.85738 28.4063 9.62964ZM35.5206 8.44546L39.1924 11.0158H40.4133H41.625V15.0548V19.0939H40.395C38.8987 19.0939 38.7885 19.149 38.6784 19.9476C38.5958 20.5535 38.3571 20.939 37.9165 21.1502C37.4575 21.3705 33.3083 21.3705 32.8493 21.1502C32.4178 20.939 32.17 20.5535 32.0874 19.9568C31.968 19.1123 32.0874 19.149 29.0489 19.0939C26.552 19.048 26.3868 19.0388 26.1481 18.8552C25.6616 18.4972 25.5147 18.2035 25.5147 17.6252C25.5147 17.0468 25.6616 16.7531 26.1481 16.3951C26.3868 16.2115 26.552 16.2023 29.0581 16.1564L31.711 16.1105L33.2256 14.5959C34.061 13.7605 34.7403 13.0445 34.7403 12.9894C34.7403 12.8701 33.8958 12.0255 33.7764 12.0255C33.7213 12.0255 33.0879 12.6222 32.3536 13.3566L31.0225 14.6877H30.4534H29.8751V10.2814V5.87515H30.8665H31.8579L35.5206 8.44546ZM46.0313 15.422V21.297H44.5626H43.0938V15.422V9.54703H44.5626H46.0313V15.422Z" fill="#0036E3"/>
<path id="Vector_2" d="M14.1961 24.4089C13.2506 24.6659 12.5162 25.0882 11.7359 25.8225C10.717 26.768 9.81738 28.2093 9.2666 29.7514C9.04629 30.3757 8.94531 30.5317 8.25684 31.211L7.49492 31.9729L7.24707 31.771C6.70547 31.3487 6.57695 31.4221 4.7502 33.2581C2.85 35.1491 2.81328 35.2225 3.36406 35.8468L3.64863 36.1772L2.07891 37.7653L0.5 39.3442V41.8503V44.3472L0.729492 44.5675L0.949805 44.797H5.64063H10.3314L10.8363 44.3288L11.332 43.8514L11.8277 44.3288C12.6447 45.0999 12.6264 45.0999 14.6092 43.1171C16.6287 41.0975 16.6012 41.1618 15.7199 40.2438L15.1508 39.6472L16.2432 38.5548L17.3447 37.4716L22.7332 37.8296L28.1309 38.1968L34.6301 36.0946C38.2102 34.9288 41.3129 33.8915 41.524 33.7905C42.1023 33.4876 42.598 32.9919 42.8734 32.4411C43.0938 32.0005 43.1121 31.8628 43.0754 31.2294C43.0111 30.1186 42.5613 29.4118 41.5883 28.8886C41.2211 28.6866 41.1477 28.6866 36.7965 28.6591L32.3811 28.6315L32.1607 28.1542C31.8854 27.5575 31.3438 27.0067 30.7471 26.713C30.2881 26.4927 30.2605 26.4835 26.8457 26.4284C22.9719 26.3733 22.8801 26.355 21.2736 25.6022C19.4469 24.7485 17.8863 24.3446 16.0596 24.2804C15.059 24.2345 14.7561 24.262 14.1961 24.4089ZM17.152 25.8409C18.3637 26.0245 19.1256 26.2632 20.6035 26.9149C22.6322 27.8145 22.7607 27.8329 26.6805 27.8972C29.8934 27.9522 30.0586 27.9614 30.2973 28.145C30.7838 28.503 30.9307 28.7968 30.9307 29.3751C30.9307 29.9534 30.7838 30.2471 30.2973 30.6052C30.0494 30.7888 29.9209 30.7979 25.9186 30.8255L21.7969 30.853V31.5874V32.3218L26.0471 32.2942L30.2881 32.2667L30.7563 32.0188C31.4631 31.6425 31.7477 31.3671 32.0873 30.7061L32.3994 30.1095L36.4844 30.1186C39.4035 30.1186 40.6611 30.1554 40.8814 30.2288C41.3037 30.3757 41.524 30.7061 41.5883 31.2661C41.6434 31.67 41.6158 31.7526 41.3955 32.0188C41.2578 32.1841 41.0191 32.386 40.8539 32.4686C40.6979 32.5513 37.7328 33.5427 34.2629 34.6626L27.9473 36.7097L22.5588 36.3425C19.5846 36.1497 17.0602 35.9845 16.9408 35.9845C16.7756 35.9845 16.3717 36.3333 15.3986 37.288L14.0859 38.6007L11.3045 35.8192L8.53223 33.047L9.42266 32.1565C10.2488 31.312 10.3223 31.211 10.5609 30.5225C11.0475 29.0813 11.8094 27.8054 12.6814 26.9792C13.9299 25.7858 15.0039 25.5196 17.152 25.8409ZM10.6436 37.2696L14.499 41.1251L13.5535 42.0614L12.6172 43.0069L8.74336 39.1331L4.86035 35.2501L5.77832 34.3321C6.2832 33.8272 6.71465 33.4141 6.74219 33.4141C6.76973 33.4141 8.52305 35.1491 10.6436 37.2696ZM7.52246 40.0235L10.2672 42.7682L10.001 43.0528L9.73477 43.3282H5.85176H1.96875V41.6575V39.9776L3.31816 38.6282C4.06172 37.8755 4.69512 37.2696 4.72266 37.2696C4.7502 37.2696 6.00781 38.5089 7.52246 40.0235Z" fill="#0036E3"/>
</g>
</g>
<defs>
<clipPath id="clip0_774_223">
<rect width="47" height="47" fill="white" transform="translate(0.5)"/>
</clipPath>
</defs>
</svg>
