<svg width="57" height="57" viewBox="0 0 57 57" fill="none" xmlns="http://www.w3.org/2000/svg">
<g id="10217527 1">
<g id="Group">
<path id="Vector" d="M28.088 7.81523C27.6538 8.02676 27.5982 8.40527 27.6316 10.6764C27.665 12.7805 27.665 12.825 27.9322 13.0365C28.0769 13.1479 28.3329 13.248 28.4999 13.248C28.6669 13.248 28.923 13.1479 29.0677 13.0365C29.3349 12.825 29.3349 12.7805 29.3683 10.6764C29.4017 8.37187 29.346 8.02676 28.8785 7.8041C28.5445 7.65937 28.4109 7.65937 28.088 7.81523Z" fill="#0036E3"/>
<path id="Vector_2" d="M20.618 10.7209C20.4844 10.8657 20.373 11.1106 20.373 11.2776C20.373 11.7118 23.0115 15.7641 23.4123 15.9311C24.0135 16.1872 24.726 15.586 24.5367 14.9848C24.4477 14.6954 22.1098 11.0661 21.7869 10.7098C21.4752 10.3758 20.9297 10.387 20.618 10.7209Z" fill="#0036E3"/>
<path id="Vector_3" d="M35.213 10.7098C34.8901 11.0661 32.5523 14.6954 32.4632 14.9848C32.2739 15.586 32.9864 16.1872 33.5987 15.9311C33.9995 15.7641 36.6269 11.7118 36.6269 11.2553C36.6269 10.5651 35.6806 10.2088 35.213 10.7098Z" fill="#0036E3"/>
<path id="Vector_4" d="M2.83879 20.0279C2.28215 20.2729 1.71438 20.9074 1.55852 21.4529C1.46946 21.7424 1.44719 23.7463 1.46946 27.91L1.50285 33.9328L1.83684 34.4227C2.0595 34.7344 2.38235 35.0016 2.772 35.202C3.37317 35.5137 3.40657 35.5137 5.49954 35.5137C6.66848 35.5137 7.81516 35.458 8.04895 35.3912C8.60559 35.2354 9.22903 34.6787 9.48508 34.0887L9.69661 33.61L10.2755 33.9328C10.5984 34.0998 12.7359 35.2688 15.0292 36.5156L19.204 38.7979H20.0947C21.2079 38.7979 21.5642 38.6309 22.9781 37.4062C24.2472 36.3041 24.6146 35.7141 24.6702 34.6453L24.7036 33.9217L25.5831 33.1758C27.0861 31.8844 27.3866 31.3834 27.3866 30.1143C27.3866 29.5131 27.2976 29.3016 25.7056 26.1844C24.7704 24.3586 23.8798 22.6664 23.7017 22.4215C23.0003 21.3861 21.7646 20.5512 20.4732 20.2061C19.3376 19.8943 18.6697 19.9834 14.1609 20.9854C11.823 21.5086 9.8636 21.9316 9.80793 21.9316C9.7634 21.9316 9.68547 21.7646 9.64094 21.5754C9.52961 20.9854 9.03977 20.4064 8.42746 20.0947C7.87082 19.8275 7.80403 19.8164 5.57746 19.8164C3.59582 19.8164 3.21731 19.8498 2.83879 20.0279ZM7.79289 21.709C8.00442 21.9205 8.01555 22.0764 8.01555 27.6539C8.01555 33.8771 8.03782 33.6434 7.41438 33.7992C7.26965 33.8326 6.34563 33.8438 5.35481 33.8215C3.60696 33.7881 3.54016 33.777 3.32864 33.5209C3.12825 33.276 3.11711 33.0088 3.11711 27.5982C3.11711 22.0764 3.12825 21.9205 3.33977 21.709C3.55129 21.4975 3.70715 21.4863 5.56633 21.4863C7.42551 21.4863 7.58137 21.4975 7.79289 21.709ZM20.707 22.1098C21.8648 22.6219 22.2433 23.1451 24.0802 26.7633C24.982 28.5223 25.7167 30.092 25.7167 30.2367C25.7167 30.7043 25.4718 31.0494 24.6257 31.7396L23.8019 32.4299L21.9984 30.6264C20.4732 29.1012 20.1503 28.834 19.872 28.834C19.3376 28.834 19.037 29.1123 19.037 29.5799C19.037 29.9584 19.1818 30.1365 20.9853 31.9623L22.9335 33.9217V34.5229C22.9335 35.1129 22.9335 35.124 22.1876 35.8254C21.7646 36.2039 21.2302 36.6604 20.9964 36.8273C20.1614 37.3951 20.1837 37.4062 14.7509 34.4338L9.85246 31.7508L9.81907 27.7318L9.7968 23.7129L10.0974 23.635C10.2755 23.6016 12.2683 23.1451 14.5282 22.633C19.1595 21.5977 19.5046 21.5643 20.707 22.1098Z" fill="#0036E3"/>
<path id="Vector_5" d="M5.04316 22.8668C4.76484 23.1006 4.73145 23.2119 4.73145 23.8242C4.73145 24.4366 4.76484 24.5479 5.04316 24.7817C5.38828 25.0823 5.54414 25.1045 5.93379 24.9264C6.27891 24.7705 6.45703 24.392 6.45703 23.8242C6.45703 23.2565 6.27891 22.878 5.93379 22.7221C5.54414 22.544 5.38828 22.5662 5.04316 22.8668Z" fill="#0036E3"/>
<path id="Vector_6" d="M48.5725 20.0947C47.9602 20.4064 47.4703 20.9854 47.359 21.5754C47.3145 21.7646 47.2477 21.9316 47.192 21.9316C47.1475 21.9316 45.2883 21.5197 43.0617 21.0299C38.8201 20.0725 37.7068 19.9166 36.716 20.1504C35.3801 20.4621 34.0219 21.3527 33.2982 22.4215C33.1201 22.6664 32.2295 24.3586 31.2943 26.1844C29.7023 29.3016 29.6133 29.5131 29.6133 30.1143C29.6133 31.3834 29.9139 31.8844 31.4168 33.1758L32.2963 33.9217L32.3297 34.6342C32.3854 35.7363 32.7305 36.3041 34.0107 37.3951C35.4914 38.642 35.8031 38.7979 36.9053 38.7979H37.7959L42.5273 36.215L47.2588 33.6434L47.5037 34.1109C47.8154 34.7121 48.4166 35.2465 48.951 35.3912C49.1848 35.458 50.3314 35.5137 51.5004 35.5137C53.5934 35.5137 53.6268 35.5137 54.2279 35.202C54.6176 35.0016 54.9404 34.7344 55.1631 34.4227L55.4971 33.9328L55.5305 27.91C55.5527 23.7463 55.5305 21.7424 55.4414 21.4529C55.2855 20.9074 54.7178 20.2729 54.1611 20.0279C53.7826 19.8498 53.4041 19.8164 51.4225 19.8164C49.1959 19.8164 49.1291 19.8275 48.5725 20.0947ZM53.5043 21.5754C53.8605 21.8092 53.8828 22.1543 53.8828 27.6984C53.8828 33.0088 53.8717 33.276 53.6713 33.5209C53.4598 33.777 53.393 33.7881 51.6451 33.8215C50.6543 33.8438 49.7303 33.8326 49.5855 33.7992C48.9621 33.6434 48.9844 33.8771 48.9844 27.6539C48.9844 22.0764 48.9955 21.9205 49.207 21.709C49.4186 21.4975 49.5744 21.4863 51.4113 21.4863C52.4912 21.4863 53.4375 21.5309 53.5043 21.5754ZM42.2936 22.6107C44.5313 23.1006 46.5574 23.557 46.7912 23.6127L47.2031 23.724L47.1809 27.7318L47.1475 31.7508L42.249 34.4338C36.8051 37.4062 36.8273 37.4062 36.0035 36.8273C35.7697 36.6604 35.2354 36.2039 34.8234 35.8143C34.0664 35.124 34.0664 35.1129 34.0664 34.5229V33.9217L36.0146 31.9623C37.8182 30.1365 37.9629 29.9584 37.9629 29.5799C37.9629 29.1123 37.6623 28.834 37.1279 28.834C36.8496 28.834 36.5268 29.1012 34.9904 30.6375L33.198 32.4299L32.3631 31.7285C31.5059 31.016 31.2832 30.6932 31.2832 30.2256C31.2832 30.0809 32.018 28.5223 32.9197 26.7521C34.1221 24.392 34.6898 23.4012 35.0572 23.0115C35.792 22.2211 36.8162 21.7535 37.8404 21.7201C38.052 21.709 40.0559 22.1098 42.2936 22.6107Z" fill="#0036E3"/>
<path id="Vector_7" d="M51.0328 22.7332C50.7211 22.878 50.543 23.2787 50.543 23.8242C50.543 24.392 50.7211 24.7705 51.0662 24.9264C51.4559 25.1045 51.6117 25.0823 51.9568 24.7817C52.2352 24.5479 52.2686 24.4366 52.2686 23.8242C52.2686 23.2119 52.2352 23.1006 51.9568 22.8668C51.6229 22.5774 51.4002 22.544 51.0328 22.7332Z" fill="#0036E3"/>
<path id="Vector_8" d="M23.3232 41.0913C22.9781 41.2583 20.373 45.3663 20.373 45.7448C20.373 46.4351 21.3193 46.7913 21.7869 46.2792C22.1098 45.9341 24.4477 42.3048 24.5367 42.0154C24.6369 41.6925 24.4143 41.2472 24.0803 41.0913C23.7686 40.9466 23.6238 40.9466 23.3232 41.0913Z" fill="#0036E3"/>
<path id="Vector_9" d="M32.8861 41.1024C32.5744 41.2472 32.3629 41.7036 32.4631 42.0153C32.5522 42.3048 34.8901 45.9341 35.2129 46.2792C35.6916 46.8024 36.6268 46.4351 36.6268 45.7226C36.6268 45.344 33.9994 41.2472 33.6432 41.0802C33.3315 40.9466 33.1979 40.9466 32.8861 41.1024Z" fill="#0036E3"/>
<path id="Vector_10" d="M27.9321 43.9636C27.6649 44.1751 27.6649 44.2196 27.6315 46.3237C27.6093 47.7487 27.6427 48.5614 27.7206 48.7729C27.9989 49.4409 29.0009 49.4409 29.2792 48.7729C29.3571 48.5614 29.3905 47.7487 29.3682 46.3237C29.3348 44.2196 29.3348 44.1751 29.0677 43.9636C28.9229 43.8522 28.6669 43.7521 28.4999 43.7521C28.3329 43.7521 28.0768 43.8522 27.9321 43.9636Z" fill="#0036E3"/>
</g>
</g>
</svg>
