<svg width="49" height="48" viewBox="0 0 49 48" fill="none" xmlns="http://www.w3.org/2000/svg">
<path d="M32.3749 5.48447C30.2468 5.83134 27.8843 6.9376 26.4312 8.25947C26.1312 8.53135 25.6812 8.80322 25.2312 8.99072L24.5093 9.29072L23.6468 8.95322C21.5281 8.1001 19.2968 7.75322 15.9687 7.74385C12.4906 7.73447 9.79056 8.11885 7.03431 9.0001C6.11556 9.29072 5.84369 9.47822 5.74994 9.86259C5.70306 10.0501 5.58119 10.097 4.73744 10.2376C3.58431 10.4251 3.23744 10.6032 2.96556 11.1563L2.74994 11.5688V25.4626C2.74994 40.8001 2.71244 39.8345 3.34056 40.4813C3.50931 40.6595 3.80931 40.8845 4.00619 40.9876C4.47494 41.2313 5.29056 41.1845 6.73431 40.8376C9.54681 40.1626 12.4437 39.8251 15.3124 39.8251C18.2562 39.8251 20.4312 40.0876 23.1312 40.7813L24.5187 41.1376L25.5218 40.8657C26.0656 40.7157 27.0781 40.4813 27.7624 40.3501L29.0093 40.1063L29.4687 40.3032C29.8062 40.4438 30.1249 40.5001 30.6593 40.5001H31.3906L31.5968 40.9595C31.8593 41.522 32.4312 42.1032 33.0124 42.3845C33.6406 42.7032 34.8593 42.7032 35.4874 42.3845C36.0687 42.1032 36.6406 41.522 36.9031 40.9595L37.1093 40.5001H37.8406C38.2812 40.5001 38.7031 40.4438 38.9187 40.3501C39.7718 39.9938 40.2406 39.122 40.0531 38.2313C39.9593 37.7907 39.9593 37.7532 40.1843 37.5188C40.7562 36.9188 40.9062 35.7376 40.4937 34.9407L40.2781 34.5001L40.4937 34.0595C40.6624 33.7313 40.7187 33.4688 40.7187 33.0095C40.7093 32.222 40.4937 31.7251 39.9312 31.2563L39.4999 30.9001V29.8407C39.4999 29.147 39.5468 28.6688 39.6312 28.4626C39.7624 28.1438 39.7812 28.1345 41.2531 27.047C43.6812 25.2563 45.3687 22.622 46.0249 19.5938C46.2687 18.497 46.2687 16.1251 46.0249 15.0001C45.5187 12.6282 44.3843 10.5376 42.7156 8.8876C42.2656 8.42822 41.6093 7.85635 41.2531 7.60322C40.0156 6.70322 38.2624 5.92509 36.6406 5.56885C35.7124 5.37197 33.3687 5.31572 32.3749 5.48447ZM35.7124 6.94697C37.1843 7.15322 38.9562 7.82822 40.1374 8.64384C43.4843 10.9501 45.2468 15.0001 44.6093 18.9282C44.1312 21.8813 42.3874 24.497 39.6968 26.3345C38.3468 27.2532 37.9999 27.947 37.9999 29.7376V30.7501H37.2499H36.4999V28.5563C36.4999 27.2907 36.5374 26.2501 36.5937 26.1095C36.6499 25.9688 36.8749 25.6313 37.1093 25.3595C37.9062 24.4313 37.9531 24.2626 37.9812 21.722L38.0093 19.5001H38.3374C38.7593 19.5001 39.1249 19.1532 39.1249 18.7501C39.1249 18.347 38.7593 18.0001 38.3281 18.0001C38.0187 18.0001 37.9999 17.9813 37.9999 17.672C37.9999 17.2407 37.6531 16.8751 37.2499 16.8751C36.8468 16.8751 36.4999 17.2407 36.4999 17.672V18.0001H34.2499H31.9999V17.672C31.9999 17.2407 31.6531 16.8751 31.2499 16.8751C30.8468 16.8751 30.4999 17.2407 30.4999 17.672C30.4999 17.9813 30.4812 18.0001 30.1718 18.0001C29.7406 18.0001 29.3749 18.347 29.3749 18.7501C29.3749 19.1532 29.7406 19.5001 30.1624 19.5001H30.4906L30.5187 21.722C30.5468 24.2626 30.5937 24.4313 31.3906 25.3595C31.6249 25.6313 31.8499 25.9688 31.9062 26.1095C31.9624 26.2501 31.9999 27.2907 31.9999 28.5563V30.7501H31.2499H30.4999V29.6907C30.4999 27.872 30.1812 27.2438 28.7656 26.297C24.0593 23.1376 22.4562 17.4563 24.8937 12.6095C26.2249 9.95634 28.5687 8.03447 31.4656 7.21885C32.7874 6.85322 34.3249 6.7501 35.7124 6.94697ZM19.6249 9.4126C20.8906 9.61885 22.1656 9.95634 23.0468 10.322L23.7499 10.6126V11.072C23.7499 11.4001 23.6656 11.7001 23.4593 12.1032C21.8843 15.2438 21.8843 19.3595 23.4781 22.5188L23.7499 23.0532V30.5907V38.1282L22.8874 37.6782C20.8249 36.6282 18.2468 36.0095 15.1718 35.8595C13.1656 35.7563 10.0437 36.0657 8.08431 36.5626C7.68119 36.6657 7.33431 36.7501 7.30619 36.7501C7.27806 36.7501 7.25931 30.8345 7.26869 23.6157L7.29681 10.472L8.04681 10.247C9.49056 9.8251 11.4781 9.46885 13.6718 9.24385C14.6093 9.1501 18.6781 9.27197 19.6249 9.4126ZM5.74994 24.8251C5.74994 37.8188 5.74994 38.0345 5.93744 38.222C6.03119 38.3345 6.19994 38.447 6.29369 38.4751C6.38744 38.5126 7.13744 38.3626 7.95306 38.1563C12.2843 37.0501 16.6812 37.0501 20.1593 38.1657C20.9562 38.4188 22.0624 38.8688 22.0624 38.9345C22.0624 38.9438 21.5093 38.8688 20.8343 38.7563C18.9031 38.4282 17.4968 38.3251 15.3124 38.3251C12.3687 38.3251 9.68744 38.6345 6.59369 39.3282C4.90619 39.7126 4.69056 39.722 4.43744 39.4688C4.24994 39.2813 4.24994 39.1595 4.24994 25.5563V11.8313L4.74681 11.7376C5.00931 11.6907 5.34681 11.6438 5.49681 11.6345L5.74994 11.6251V24.8251ZM36.4999 21.4688C36.4999 23.6813 36.4718 23.8313 35.8531 24.5251C35.6562 24.7595 35.3843 25.1438 35.2624 25.3876C35.0562 25.8095 35.0468 25.922 35.0187 28.2845L34.9906 30.7501H34.2499H33.5093L33.4812 28.2845C33.4531 25.922 33.4437 25.8095 33.2374 25.3876C33.1156 25.1438 32.8531 24.7595 32.6656 24.5438C32.0093 23.7938 31.9999 23.7657 31.9999 21.5157V19.5001H34.2499H36.4999V21.4688ZM27.7249 27.4032C28.9343 28.247 28.9437 28.2657 28.9812 29.7001L29.0093 30.8907L28.5781 31.2563C28.0062 31.7251 27.7906 32.2126 27.7812 33.0095C27.7812 33.4688 27.8374 33.7313 28.0062 34.0595L28.2218 34.5001L27.9968 34.9407C27.7906 35.3345 27.7718 35.4845 27.7999 36.1595L27.8374 36.9282L27.4156 37.0876C27.1812 37.172 26.6187 37.4345 26.1687 37.6501C25.7187 37.8751 25.3249 38.0626 25.2968 38.0626C25.2687 38.0626 25.2499 35.1938 25.2499 31.6782V25.3032L26.0749 26.0626C26.5249 26.4751 27.2656 27.0845 27.7249 27.4032ZM39.0312 32.4376C39.1531 32.5595 39.2187 32.747 39.2187 33.0001C39.2187 33.2532 39.1531 33.4407 39.0312 33.5626C38.8531 33.7407 38.7218 33.7501 34.2499 33.7501C29.7781 33.7501 29.6468 33.7407 29.4687 33.5626C29.3468 33.4407 29.2812 33.2532 29.2812 33.0001C29.2812 32.747 29.3468 32.5595 29.4687 32.4376C29.6468 32.2595 29.7781 32.2501 34.2499 32.2501C38.7218 32.2501 38.8531 32.2595 39.0312 32.4376ZM39.0312 35.4376C39.1531 35.5595 39.2187 35.747 39.2187 36.0001C39.2187 36.2532 39.1531 36.4407 39.0312 36.5626C38.8531 36.7407 38.7218 36.7501 34.2499 36.7501C29.7781 36.7501 29.6468 36.7407 29.4687 36.5626C29.3468 36.4407 29.2812 36.2532 29.2812 36.0001C29.2812 35.747 29.3468 35.5595 29.4687 35.4376C29.6468 35.2595 29.7781 35.2501 34.2499 35.2501C38.7218 35.2501 38.8531 35.2595 39.0312 35.4376ZM38.5062 38.4001C38.5906 38.4751 38.6562 38.5782 38.6562 38.6251C38.6562 38.672 38.5906 38.7751 38.5062 38.8501C38.3749 38.9813 37.8593 39.0001 34.2499 39.0001C30.6406 39.0001 30.1249 38.9813 29.9937 38.8501C29.9093 38.7751 29.8437 38.672 29.8437 38.6251C29.8437 38.5782 29.9093 38.4751 29.9937 38.4001C30.1249 38.2688 30.6406 38.2501 34.2499 38.2501C37.8593 38.2501 38.3749 38.2688 38.5062 38.4001ZM28.4374 38.4095C28.4281 38.6157 28.2218 38.7282 27.6031 38.8407C26.8343 38.9907 26.8343 38.9251 27.6406 38.597C28.2406 38.3438 28.4374 38.297 28.4374 38.4095ZM35.1874 40.7813C34.6249 41.2688 33.8187 41.2688 33.2843 40.7813L32.9843 40.5095H34.2499H35.5156L35.1874 40.7813Z" fill="#0036E3"/>
<path d="M13.0343 12.4314C11.6843 12.6377 10.7093 12.9377 10.4187 13.2283C10.1281 13.5096 10.0999 13.6596 10.2593 14.0064C10.4562 14.4377 10.7749 14.4846 11.8531 14.2127C13.2312 13.8752 13.9531 13.7814 15.4624 13.7814C16.9999 13.7814 18.0687 13.9408 19.3062 14.3627C20.2906 14.6908 20.5812 14.6721 20.7968 14.2502C20.9749 13.9033 20.8999 13.5564 20.5906 13.3127C20.2531 13.0502 18.7999 12.6096 17.6937 12.4314C16.5312 12.2439 14.1968 12.2439 13.0343 12.4314Z" fill="#0036E3"/>
<path d="M13.4844 16.2844C12.7531 16.3782 11.6 16.6219 11.0469 16.7907C10.5125 16.95 10.4094 17.025 10.2781 17.2969C10.1 17.6813 10.1937 17.9907 10.5687 18.2438C10.7937 18.3844 10.8594 18.3844 11.7687 18.15C13.2219 17.7844 13.9156 17.7 15.3594 17.6907C16.9719 17.6907 17.8719 17.8219 19.1844 18.2532C20.3 18.6188 20.4969 18.6094 20.8062 18.1407C21.2844 17.4188 20.1219 16.7438 17.75 16.3594C16.925 16.2282 14.2719 16.1813 13.4844 16.2844Z" fill="#0036E3"/>
<path d="M14.4218 20.1283C13.053 20.2127 10.9249 20.6627 10.4749 20.9533C10.1843 21.1408 10.0999 21.6002 10.2968 21.9002C10.5593 22.3127 10.7936 22.3314 11.9749 22.0314C14.628 21.3564 17.1968 21.4595 19.6343 22.322C20.2343 22.5283 20.2624 22.5283 20.5061 22.3689C20.8999 22.1158 21.003 21.8064 20.8155 21.4314C20.6936 21.1595 20.5624 21.0752 19.878 20.8314C18.8749 20.4658 17.9561 20.2783 16.6155 20.1564C15.5749 20.0627 15.4061 20.0627 14.4218 20.1283Z" fill="#0036E3"/>
<path d="M13.775 24.1032C12.3125 24.2532 10.625 24.6751 10.3813 24.947C10.1656 25.1907 10.1656 25.7157 10.3906 25.9689C10.6156 26.2126 10.9344 26.2126 12.0313 25.9314C14.525 25.3032 17.1594 25.3876 19.3625 26.1657C20.0938 26.4189 20.2063 26.4376 20.4406 26.3251C20.5813 26.2595 20.7594 26.0814 20.8344 25.9314C20.9469 25.697 20.9375 25.622 20.8156 25.3595C20.6938 25.097 20.5438 25.0032 19.9344 24.7689C18.2281 24.1126 15.9688 23.8689 13.775 24.1032Z" fill="#0036E3"/>
<path d="M13.9717 28.0406C12.4811 28.1719 10.578 28.6406 10.3342 28.9312C10.1748 29.1281 10.1748 29.6625 10.3436 29.8594C10.5967 30.1594 10.8873 30.1969 11.4967 30.0094C12.6498 29.6531 13.8873 29.4937 15.453 29.4937C17.1686 29.5031 17.7498 29.5875 19.2217 30.0656C20.2342 30.3844 20.2811 30.3937 20.5155 30.2437C21.1342 29.8406 21.003 29.1656 20.2342 28.8281C19.4842 28.4906 17.8998 28.1344 16.7186 28.0312C15.528 27.9281 15.1811 27.9281 13.9717 28.0406Z" fill="#0036E3"/>
<path d="M13.4092 31.7907C12.4529 31.9126 11.1123 32.2313 10.7279 32.4095C10.2592 32.6438 10.0904 32.9813 10.2404 33.347C10.4467 33.8532 10.7092 33.9095 11.6373 33.6751C14.2154 33.0001 17.1217 33.0188 19.1092 33.722C19.4748 33.8532 19.8592 33.9751 19.9717 34.0032C20.7967 34.2001 21.2467 33.1407 20.5436 32.6813C20.1404 32.4188 18.6404 31.9782 17.6467 31.8376C16.5686 31.6782 14.4779 31.6595 13.4092 31.7907Z" fill="#0036E3"/>
</svg>
