<svg fill="none" xmlns="http://www.w3.org/2000/svg" viewBox="25 22 80.7 80.66" width="74" height="66"><path fill-rule="evenodd" clip-rule="evenodd" d="M29 60.532C29 41.46 44.46 26 63.532 26c19.07 0 34.53 15.46 34.53 34.532a34.48 34.48 0 0 1-1.973 11.535 15.085 15.085 0 0 1 3.075 3.154 38.421 38.421 0 0 0 2.899-14.69C102.063 39.252 84.812 22 63.531 22 42.252 22 25 39.251 25 60.532c0 21.28 17.251 38.53 38.532 38.53 5.201 0 10.162-1.03 14.689-2.898a15.085 15.085 0 0 1-3.154-3.075 34.473 34.473 0 0 1-11.535 1.974C44.46 95.063 29 79.603 29 60.53z" fill="#007FED"/><path d="M64.58 42v19.35L51 74.93" stroke="#007FED" stroke-width="4" stroke-miterlimit="10"/><path d="M88.633 84.89a3.05 3.05 0 1 1 3.05-3.051m-3.05 3.05a3.05 3.05 0 1 1-3.042 3.05m3.042-12.2v3.05m0 15.243v-3.05" stroke="#007FED" stroke-width="3" stroke-miterlimit="10"/><path d="M103.696 85.338a15.305 15.305 0 0 1-13.37 15.188c-.662.091-1.33.134-1.998.13a15.328 15.328 0 1 1 12.75-23.837c1.683 2.522 2.62 5.487 2.618 8.519z" stroke="#007FED" stroke-width="4" stroke-miterlimit="10"/></svg>
